<svg class="equipsvg" fill="#F26A73" id="svg" viewBox="0 0 400 400" version="1.1" width="20" height="20" xmlns="http://www.w3.org/2000/svg" xmlns:xlink="http://www.w3.org/1999/xlink" style="display: block;">
  <g id="svgg">
    <path id="path0" d="M165.680 1.556 C 165.680 3.357,161.858 4.636,150.296 6.706 C 146.391 7.405,141.598 8.801,139.645 9.809 C 137.692 10.817,133.964 12.074,131.361 12.602 C 128.757 13.129,125.030 14.568,123.077 15.799 C 121.124 17.030,117.492 18.795,115.005 19.720 C 112.518 20.646,110.258 21.770,109.982 22.216 C 109.705 22.663,107.255 24.027,104.536 25.247 C 101.818 26.466,99.349 27.861,99.049 28.345 C 98.749 28.830,96.426 30.276,93.886 31.558 C 91.345 32.841,89.025 34.281,88.729 34.760 C 88.433 35.239,87.076 36.307,85.713 37.134 C 84.350 37.960,81.992 39.724,80.473 41.054 C 78.955 42.383,76.087 44.784,74.102 46.390 C 61.094 56.910,55.040 62.849,47.942 72.056 C 45.657 75.020,42.456 79.035,40.828 80.979 C 39.201 82.923,37.870 84.835,37.870 85.228 C 37.870 85.620,36.853 87.107,35.609 88.533 C 34.366 89.958,32.552 92.722,31.578 94.675 C 30.604 96.627,29.006 99.112,28.028 100.197 C 27.050 101.282,25.843 103.387,25.346 104.874 C 24.849 106.362,23.418 109.202,22.167 111.186 C 20.916 113.170,19.640 115.680,19.330 116.765 C 19.021 117.850,17.614 121.045,16.205 123.866 C 14.795 126.686,13.182 130.931,12.620 133.299 C 12.058 135.667,10.597 139.750,9.372 142.372 C 7.992 145.328,6.650 150.289,5.841 155.424 C 4.235 165.622,3.648 167.258,1.597 167.258 C 0.017 167.258,0.000 167.642,0.000 202.312 L 0.000 237.366 1.722 237.618 C 3.726 237.911,4.044 238.874,6.321 251.548 C 7.204 256.467,8.636 261.882,9.503 263.580 C 10.370 265.279,11.639 268.887,12.323 271.599 C 13.008 274.310,14.555 278.304,15.762 280.473 C 16.968 282.643,18.563 286.293,19.306 288.585 C 20.048 290.876,21.450 293.716,22.420 294.896 C 23.390 296.076,24.808 298.639,25.570 300.592 C 26.333 302.544,27.544 304.796,28.262 305.595 C 28.980 306.395,30.459 308.566,31.549 310.421 C 36.712 319.209,43.163 328.547,46.943 332.706 C 54.255 340.751,64.009 350.374,71.190 356.627 C 82.728 366.674,84.528 368.089,88.021 369.858 C 89.786 370.751,91.715 372.067,92.308 372.781 C 92.901 373.495,94.829 374.815,96.594 375.714 C 98.359 376.613,100.868 378.155,102.170 379.141 C 103.471 380.127,106.440 381.655,108.767 382.535 C 111.094 383.416,113.621 384.701,114.384 385.391 C 115.147 386.081,118.568 387.611,121.988 388.791 C 127.033 390.532,128.253 391.270,128.457 392.707 C 128.785 395.008,146.746 395.553,146.746 393.262 C 146.746 392.593,147.544 390.967,148.521 389.648 C 150.210 387.366,150.307 386.438,150.535 370.528 C 150.825 350.306,150.712 350.037,142.406 351.122 C 128.868 352.891,110.967 351.170,105.823 347.606 C 104.242 346.510,101.708 345.196,100.192 344.686 C 96.836 343.555,89.619 336.771,87.535 332.788 C 86.697 331.186,85.175 328.643,84.153 327.137 C 83.131 325.632,81.823 322.682,81.246 320.583 C 80.669 318.483,79.413 315.700,78.456 314.398 C 77.498 313.097,76.175 310.961,75.514 309.654 C 73.774 306.206,64.737 297.201,60.565 294.756 C 57.977 293.239,56.448 291.576,55.055 288.761 L 53.127 284.866 55.881 283.559 C 59.131 282.016,67.889 282.330,71.144 284.105 C 72.256 284.711,74.663 286.029,76.492 287.033 C 80.871 289.436,91.022 299.252,93.836 303.805 C 96.384 307.927,105.441 317.170,108.206 318.469 C 120.786 324.380,128.685 325.403,138.383 322.380 C 142.024 321.245,145.430 320.316,145.950 320.316 C 147.654 320.316,151.479 317.085,151.479 315.646 C 151.479 314.872,152.311 312.675,153.327 310.764 C 154.343 308.854,155.636 305.872,156.200 304.138 C 156.765 302.405,157.709 300.286,158.298 299.430 C 159.414 297.808,159.702 294.488,158.906 292.413 C 158.415 291.136,155.375 290.381,142.514 288.346 C 138.193 287.663,133.105 286.297,131.074 285.276 C 129.062 284.264,125.464 282.874,123.077 282.186 C 120.690 281.499,117.495 280.008,115.976 278.875 C 114.458 277.741,111.991 276.294,110.494 275.660 C 107.380 274.339,105.759 272.933,96.027 263.116 C 91.846 258.900,88.374 254.613,87.476 252.561 C 86.645 250.660,85.142 248.128,84.136 246.933 C 83.131 245.738,81.862 243.032,81.317 240.920 C 80.771 238.809,79.498 235.128,78.487 232.742 C 76.302 227.587,76.062 226.291,74.545 211.440 C 72.495 191.384,73.780 172.876,77.831 164.103 C 78.933 161.716,80.349 158.072,80.977 156.005 C 81.605 153.937,83.143 151.080,84.394 149.655 C 85.645 148.230,87.976 144.460,89.573 141.276 L 92.478 135.488 90.618 131.514 C 86.148 121.966,89.494 93.817,95.946 86.688 C 98.460 83.910,118.480 86.894,124.078 90.881 C 125.280 91.737,128.442 93.291,131.106 94.335 C 133.769 95.378,136.514 96.735,137.205 97.350 C 137.896 97.965,141.801 99.966,145.883 101.797 L 153.304 105.126 156.740 103.456 C 168.111 97.932,229.172 97.903,243.157 103.416 C 245.997 104.535,247.420 104.710,248.948 104.129 C 253.200 102.513,261.605 98.311,263.116 97.047 C 263.984 96.321,266.469 95.087,268.639 94.306 C 270.809 93.525,273.698 92.058,275.060 91.046 C 276.421 90.034,280.090 88.498,283.213 87.633 C 286.335 86.768,290.756 85.362,293.037 84.508 C 301.657 81.283,305.047 83.206,307.896 92.940 C 308.746 95.847,309.958 100.000,310.589 102.170 C 312.315 108.110,311.587 123.502,309.269 130.051 L 307.500 135.052 309.070 137.176 C 309.933 138.343,311.365 140.708,312.252 142.431 C 313.138 144.153,314.905 146.717,316.177 148.130 C 317.449 149.542,318.935 152.204,319.479 154.047 C 320.023 155.889,321.117 158.462,321.910 159.763 C 328.075 169.880,328.137 219.574,322.001 231.787 C 321.192 233.397,320.086 236.599,319.544 238.902 C 319.002 241.206,317.759 244.046,316.781 245.214 C 315.804 246.382,314.104 249.122,313.003 251.302 C 309.636 257.971,293.911 273.047,287.570 275.685 C 285.837 276.406,283.176 277.841,281.657 278.874 C 280.138 279.906,276.821 281.345,274.285 282.070 C 271.749 282.796,267.805 284.245,265.520 285.292 C 262.849 286.515,258.039 287.630,252.044 288.416 C 239.461 290.066,239.446 290.076,241.530 295.284 C 242.437 297.552,243.734 301.003,244.412 302.952 C 245.089 304.901,246.271 307.564,247.038 308.869 C 249.575 313.188,250.087 320.740,250.093 353.933 L 250.099 386.368 252.071 389.274 C 253.156 390.873,254.043 392.697,254.043 393.329 C 254.043 395.565,272.013 394.949,272.332 392.702 C 272.536 391.261,273.766 390.514,278.864 388.730 C 282.318 387.521,285.690 386.044,286.359 385.446 C 287.027 384.848,289.611 383.462,292.100 382.365 C 294.590 381.269,297.785 379.520,299.201 378.478 C 300.617 377.436,302.903 376.139,304.282 375.596 C 305.661 375.053,307.436 373.894,308.227 373.019 C 309.018 372.145,311.085 370.711,312.821 369.832 C 314.556 368.952,317.396 367.010,319.132 365.514 C 320.868 364.018,323.827 361.491,325.708 359.898 C 337.639 349.793,342.153 345.382,350.870 335.311 C 354.440 331.186,358.037 327.101,358.863 326.233 C 359.690 325.365,361.340 322.880,362.531 320.710 C 363.722 318.540,365.320 316.055,366.082 315.187 C 366.845 314.320,368.083 312.367,368.834 310.848 C 369.585 309.329,371.033 307.194,372.052 306.103 C 373.070 305.012,374.445 302.583,375.108 300.706 C 375.770 298.828,377.178 296.263,378.235 295.006 C 379.293 293.749,380.739 290.723,381.449 288.283 C 382.159 285.842,383.581 282.553,384.611 280.976 C 385.640 279.398,387.047 275.895,387.736 273.192 C 388.425 270.488,390.011 265.696,391.260 262.541 C 392.509 259.386,393.776 254.852,394.076 252.465 C 395.154 243.872,396.908 238.264,398.518 238.264 C 399.946 238.264,400.000 236.981,400.000 203.156 C 400.000 169.389,399.944 168.047,398.525 168.047 C 397.089 168.047,395.307 161.467,393.290 148.718 C 393.016 146.982,391.925 143.648,390.866 141.309 C 389.807 138.970,388.418 135.039,387.779 132.574 C 387.140 130.109,385.368 125.695,383.841 122.766 C 382.314 119.836,381.065 116.913,381.065 116.270 C 381.065 115.627,379.645 112.746,377.909 109.869 C 376.174 106.991,374.753 104.182,374.753 103.628 C 374.753 103.073,373.736 101.453,372.493 100.027 C 371.249 98.602,369.426 95.838,368.442 93.886 C 367.457 91.933,365.723 89.202,364.588 87.817 C 363.453 86.432,361.282 83.453,359.763 81.196 C 352.815 70.874,335.978 53.340,326.233 46.278 C 324.063 44.706,321.045 42.333,319.527 41.004 C 312.466 34.829,310.115 33.141,306.095 31.360 C 303.719 30.307,301.257 28.819,300.623 28.052 C 299.990 27.285,297.517 25.794,295.127 24.737 C 292.738 23.680,290.214 22.301,289.518 21.671 C 288.822 21.041,286.281 19.847,283.870 19.018 C 281.459 18.188,278.111 16.602,276.430 15.491 C 274.748 14.381,271.420 13.060,269.034 12.556 C 266.647 12.051,262.949 10.759,260.817 9.685 C 258.684 8.610,253.358 7.096,248.982 6.320 C 236.787 4.157,234.320 3.354,234.320 1.547 C 234.320 0.034,233.569 0.000,200.000 0.000 C 166.368 0.000,165.680 0.031,165.680 1.556 " stroke="none"  fill-rule="evenodd"></path>
    <path id="path1" d="M0.000 83.629 C 0.000 167.073,0.004 167.258,1.597 167.258 C 3.648 167.258,4.235 165.622,5.841 155.424 C 6.650 150.289,7.992 145.328,9.372 142.372 C 10.597 139.750,12.058 135.667,12.620 133.299 C 13.182 130.931,14.795 126.686,16.205 123.866 C 17.614 121.045,19.021 117.850,19.330 116.765 C 19.640 115.680,20.916 113.170,22.167 111.186 C 23.418 109.202,24.849 106.362,25.346 104.874 C 25.843 103.387,27.050 101.282,28.028 100.197 C 29.006 99.112,30.604 96.627,31.578 94.675 C 32.552 92.722,34.366 89.958,35.609 88.533 C 36.853 87.107,37.870 85.620,37.870 85.228 C 37.870 84.835,39.201 82.923,40.828 80.979 C 42.456 79.035,45.657 75.020,47.942 72.056 C 55.040 62.849,61.094 56.910,74.102 46.390 C 76.087 44.784,78.955 42.383,80.473 41.054 C 81.992 39.724,84.350 37.960,85.713 37.134 C 87.076 36.307,88.433 35.239,88.729 34.760 C 89.025 34.281,91.345 32.841,93.886 31.558 C 96.426 30.276,98.749 28.830,99.049 28.345 C 99.349 27.861,101.818 26.466,104.536 25.247 C 107.255 24.027,109.705 22.663,109.982 22.216 C 110.258 21.770,112.518 20.646,115.005 19.720 C 117.492 18.795,121.124 17.030,123.077 15.799 C 125.030 14.568,128.757 13.129,131.361 12.602 C 133.964 12.074,137.692 10.817,139.645 9.809 C 141.598 8.801,146.391 7.405,150.296 6.706 C 161.858 4.636,165.680 3.357,165.680 1.556 C 165.680 0.017,164.763 0.000,82.840 0.000 L 0.000 0.000 0.000 83.629 M234.320 1.547 C 234.320 3.354,236.787 4.157,248.982 6.320 C 253.358 7.096,258.684 8.610,260.817 9.685 C 262.949 10.759,266.647 12.051,269.034 12.556 C 271.420 13.060,274.748 14.381,276.430 15.491 C 278.111 16.602,281.459 18.188,283.870 19.018 C 286.281 19.847,288.822 21.041,289.518 21.671 C 290.214 22.301,292.738 23.680,295.127 24.737 C 297.517 25.794,299.990 27.285,300.623 28.052 C 301.257 28.819,303.719 30.307,306.095 31.360 C 310.115 33.141,312.466 34.829,319.527 41.004 C 321.045 42.333,324.063 44.706,326.233 46.278 C 335.978 53.340,352.815 70.874,359.763 81.196 C 361.282 83.453,363.453 86.432,364.588 87.817 C 365.723 89.202,367.457 91.933,368.442 93.886 C 369.426 95.838,371.249 98.602,372.493 100.027 C 373.736 101.453,374.753 103.073,374.753 103.628 C 374.753 104.182,376.174 106.991,377.909 109.869 C 379.645 112.746,381.065 115.627,381.065 116.270 C 381.065 116.913,382.314 119.836,383.841 122.766 C 385.368 125.695,387.140 130.109,387.779 132.574 C 388.418 135.039,389.807 138.970,390.866 141.309 C 391.925 143.648,393.016 146.982,393.290 148.718 C 395.307 161.467,397.089 168.047,398.525 168.047 C 399.956 168.047,400.000 165.569,400.000 84.024 L 400.000 0.000 317.160 0.000 C 235.388 0.000,234.320 0.020,234.320 1.547 M293.097 84.470 C 290.927 85.312,286.543 86.719,283.355 87.595 C 280.166 88.472,276.438 90.021,275.071 91.038 C 273.703 92.054,270.809 93.525,268.639 94.306 C 266.469 95.087,263.984 96.321,263.116 97.047 C 261.605 98.311,253.200 102.513,248.948 104.129 C 247.420 104.710,245.997 104.535,243.157 103.416 C 229.172 97.903,168.111 97.932,156.740 103.456 L 153.304 105.126 145.883 101.797 C 141.801 99.966,137.896 97.965,137.205 97.350 C 136.514 96.735,133.769 95.378,131.106 94.335 C 128.442 93.291,125.280 91.737,124.078 90.881 C 118.480 86.894,98.460 83.910,95.946 86.688 C 89.494 93.817,86.148 121.966,90.618 131.514 L 92.478 135.488 89.573 141.276 C 87.976 144.460,85.645 148.230,84.394 149.655 C 83.143 151.080,81.605 153.937,80.977 156.005 C 80.349 158.072,78.933 161.716,77.831 164.103 C 73.780 172.876,72.495 191.384,74.545 211.440 C 76.062 226.291,76.302 227.587,78.487 232.742 C 79.498 235.128,80.771 238.809,81.317 240.920 C 81.862 243.032,83.131 245.738,84.136 246.933 C 85.142 248.128,86.645 250.660,87.476 252.561 C 88.374 254.613,91.846 258.900,96.027 263.116 C 105.759 272.933,107.380 274.339,110.494 275.660 C 111.991 276.294,114.458 277.741,115.976 278.875 C 117.495 280.008,120.690 281.499,123.077 282.186 C 125.464 282.874,129.062 284.264,131.074 285.276 C 133.105 286.297,138.193 287.663,142.514 288.346 C 155.375 290.381,158.415 291.136,158.906 292.413 C 159.702 294.488,159.414 297.808,158.298 299.430 C 157.709 300.286,156.765 302.405,156.200 304.138 C 155.636 305.872,154.343 308.854,153.327 310.764 C 152.311 312.675,151.479 314.872,151.479 315.646 C 151.479 317.085,147.654 320.316,145.950 320.316 C 145.430 320.316,142.024 321.245,138.383 322.380 C 128.685 325.403,120.786 324.380,108.206 318.469 C 105.441 317.170,96.384 307.927,93.836 303.805 C 91.022 299.252,80.871 289.436,76.492 287.033 C 74.663 286.029,72.256 284.711,71.144 284.105 C 67.889 282.330,59.131 282.016,55.881 283.559 L 53.127 284.866 55.055 288.761 C 56.448 291.576,57.977 293.239,60.565 294.756 C 64.737 297.201,73.774 306.206,75.514 309.654 C 76.175 310.961,77.498 313.097,78.456 314.398 C 79.413 315.700,80.669 318.483,81.246 320.583 C 81.823 322.682,83.131 325.632,84.153 327.137 C 85.175 328.643,86.697 331.186,87.535 332.788 C 89.619 336.771,96.836 343.555,100.192 344.686 C 101.708 345.196,104.242 346.510,105.823 347.606 C 110.967 351.170,128.868 352.891,142.406 351.122 C 150.712 350.037,150.825 350.306,150.535 370.528 C 150.307 386.438,150.210 387.366,148.521 389.648 C 144.706 394.802,141.215 394.477,200.394 394.477 C 259.833 394.477,255.873 394.876,252.071 389.274 L 250.099 386.368 250.093 353.933 C 250.087 320.740,249.575 313.188,247.038 308.869 C 246.271 307.564,245.089 304.901,244.412 302.952 C 243.734 301.003,242.437 297.552,241.530 295.284 C 239.446 290.076,239.461 290.066,252.044 288.416 C 258.039 287.630,262.849 286.515,265.520 285.292 C 267.805 284.245,271.749 282.796,274.285 282.070 C 276.821 281.345,280.138 279.906,281.657 278.874 C 283.176 277.841,285.837 276.406,287.570 275.685 C 293.911 273.047,309.636 257.971,313.003 251.302 C 314.104 249.122,315.804 246.382,316.781 245.214 C 317.759 244.046,319.002 241.206,319.544 238.902 C 320.086 236.599,321.192 233.397,322.001 231.787 C 328.137 219.574,328.075 169.880,321.910 159.763 C 321.117 158.462,320.023 155.889,319.479 154.047 C 318.935 152.204,317.449 149.542,316.177 148.130 C 314.905 146.717,313.138 144.153,312.252 142.431 C 311.365 140.708,309.936 138.347,309.075 137.183 L 307.511 135.068 309.377 129.664 C 312.088 121.811,312.097 105.514,309.395 97.436 C 304.752 83.554,305.107 84.096,300.197 83.392 C 298.040 83.082,295.793 83.423,293.097 84.470 M0.000 315.921 L 0.000 394.477 64.355 394.477 L 128.709 394.477 128.457 392.707 C 128.253 391.270,127.033 390.532,121.988 388.791 C 118.568 387.611,115.147 386.081,114.384 385.391 C 113.621 384.701,111.094 383.416,108.767 382.535 C 106.440 381.655,103.471 380.127,102.170 379.141 C 100.868 378.155,98.359 376.613,96.594 375.714 C 94.829 374.815,92.901 373.495,92.308 372.781 C 91.715 372.067,89.786 370.751,88.021 369.858 C 84.528 368.089,82.728 366.674,71.190 356.627 C 64.009 350.374,54.255 340.751,46.943 332.706 C 43.163 328.547,36.712 319.209,31.549 310.421 C 30.459 308.566,28.980 306.395,28.262 305.595 C 27.544 304.796,26.333 302.544,25.570 300.592 C 24.808 298.639,23.390 296.076,22.420 294.896 C 21.450 293.716,20.048 290.876,19.306 288.585 C 18.563 286.293,16.968 282.643,15.762 280.473 C 14.555 278.304,13.008 274.310,12.323 271.599 C 11.639 268.887,10.370 265.279,9.503 263.580 C 8.636 261.882,7.204 256.467,6.321 251.548 C 4.044 238.874,3.726 237.911,1.722 237.618 L 0.000 237.366 0.000 315.921 M395.828 243.195 C 395.164 245.907,394.375 250.079,394.076 252.465 C 393.776 254.852,392.509 259.386,391.260 262.541 C 390.011 265.696,388.425 270.488,387.736 273.192 C 387.047 275.895,385.640 279.398,384.611 280.976 C 383.581 282.553,382.159 285.842,381.449 288.283 C 380.739 290.723,379.293 293.749,378.235 295.006 C 377.178 296.263,375.770 298.828,375.108 300.706 C 374.445 302.583,373.070 305.012,372.052 306.103 C 371.033 307.194,369.585 309.329,368.834 310.848 C 368.083 312.367,366.845 314.320,366.082 315.187 C 365.320 316.055,363.722 318.540,362.531 320.710 C 361.340 322.880,359.690 325.365,358.863 326.233 C 358.037 327.101,354.440 331.186,350.870 335.311 C 342.153 345.382,337.639 349.793,325.708 359.898 C 323.827 361.491,320.868 364.018,319.132 365.514 C 317.396 367.010,314.556 368.952,312.821 369.832 C 311.085 370.711,309.018 372.145,308.227 373.019 C 307.436 373.894,305.661 375.053,304.282 375.596 C 302.903 376.139,300.617 377.436,299.201 378.478 C 297.785 379.520,294.590 381.269,292.100 382.365 C 289.611 383.462,287.027 384.848,286.359 385.446 C 285.690 386.044,282.318 387.521,278.864 388.730 C 273.766 390.514,272.536 391.261,272.332 392.702 L 272.080 394.477 336.040 394.477 L 400.000 394.477 400.000 316.371 C 400.000 240.475,399.958 238.264,398.518 238.264 C 397.355 238.264,396.776 239.325,395.828 243.195 " stroke="none" fill="none" fill-rule="evenodd"></path>
  </g>
</svg>
