<svg id="svg" viewBox="0 0 385 400" version="1.1" width="18" height="19" xmlns="http://www.w3.org/2000/svg" xmlns:xlink="http://www.w3.org/1999/xlink" style="display: block;">
  <g id="svgg">
    <path class="equipsvg" id="path0" d="M0.000 10.651 C 0.000 17.226,0.302 21.302,0.789 21.302 C 1.223 21.302,1.578 20.080,1.578 18.587 C 1.578 17.094,1.933 15.653,2.367 15.385 C 2.801 15.116,3.156 14.357,3.156 13.697 C 3.156 12.135,12.135 3.156,13.697 3.156 C 14.357 3.156,15.116 2.801,15.385 2.367 C 15.653 1.933,16.561 1.578,17.404 1.578 C 18.246 1.578,18.935 1.223,18.935 0.789 C 18.935 0.307,15.253 0.000,9.467 0.000 L 0.000 0.000 0.000 10.651 M375.148 0.789 C 375.416 1.223,376.717 1.578,378.040 1.578 C 379.664 1.578,380.947 2.217,381.995 3.550 C 382.848 4.635,384.081 5.523,384.733 5.523 C 386.314 5.523,390.533 9.801,390.533 11.404 C 390.533 12.102,391.065 12.877,391.716 13.127 C 392.367 13.377,392.899 14.431,392.899 15.469 C 392.899 16.507,393.254 17.357,393.688 17.357 C 394.122 17.357,394.477 18.966,394.477 20.932 C 394.477 23.382,394.850 24.650,395.661 24.961 C 397.462 25.652,397.462 368.825,395.661 369.516 C 394.850 369.827,394.477 371.095,394.477 373.545 C 394.477 375.512,394.122 377.120,393.688 377.120 C 393.254 377.120,392.899 377.970,392.899 379.008 C 392.899 380.047,392.367 381.101,391.716 381.350 C 391.065 381.600,390.533 382.376,390.533 383.073 C 390.533 384.648,386.325 388.955,384.787 388.955 C 384.163 388.955,382.986 389.842,382.172 390.927 C 381.132 392.312,379.938 392.899,378.163 392.899 C 376.773 392.899,375.416 393.254,375.148 393.688 C 374.831 394.202,379.085 394.477,387.330 394.477 L 400.000 394.477 400.000 197.239 L 400.000 0.000 387.330 0.000 C 379.085 0.000,374.831 0.275,375.148 0.789 M85.492 54.832 C 85.160 55.699,83.794 56.016,80.389 56.016 C 77.815 56.016,75.740 56.368,75.740 56.805 C 75.740 57.239,75.013 57.594,74.124 57.594 C 73.235 57.594,71.686 58.481,70.681 59.566 C 69.675 60.651,68.414 61.538,67.878 61.538 C 66.611 61.538,61.538 66.611,61.538 67.878 C 61.538 68.414,60.651 69.675,59.566 70.681 C 58.481 71.686,57.594 73.235,57.594 74.124 C 57.594 75.013,57.239 75.740,56.805 75.740 C 56.368 75.740,56.016 77.815,56.016 80.389 C 56.016 83.794,55.699 85.160,54.832 85.492 C 54.181 85.742,53.649 86.807,53.649 87.859 C 53.649 88.911,54.181 89.976,54.832 90.226 C 55.703 90.560,56.016 91.937,56.016 95.439 C 56.016 98.085,56.366 100.197,56.805 100.197 C 57.239 100.197,57.594 100.918,57.594 101.800 C 57.594 102.681,58.126 103.607,58.777 103.857 C 59.428 104.106,59.961 104.983,59.961 105.805 C 59.961 107.594,68.185 115.976,69.941 115.976 C 70.619 115.976,71.871 116.864,72.725 117.949 C 73.962 119.522,74.983 119.921,77.769 119.921 C 79.690 119.921,81.262 120.276,81.262 120.710 C 81.262 121.181,84.287 121.499,88.757 121.499 C 93.228 121.499,96.252 121.181,96.252 120.710 C 96.252 120.276,97.457 119.921,98.929 119.921 C 100.581 119.921,101.780 119.468,102.060 118.738 C 102.310 118.087,103.074 117.554,103.757 117.554 C 104.441 117.554,105.957 116.667,107.127 115.582 C 108.297 114.497,109.727 113.609,110.305 113.609 C 111.769 113.609,113.609 111.617,113.609 110.032 C 113.609 109.304,114.497 108.010,115.582 107.157 C 116.667 106.304,117.554 104.910,117.554 104.060 C 117.554 103.210,118.087 102.310,118.738 102.060 C 119.468 101.780,119.921 100.581,119.921 98.929 C 119.921 97.457,120.276 96.252,120.710 96.252 C 121.181 96.252,121.499 93.228,121.499 88.757 C 121.499 84.287,121.181 81.262,120.710 81.262 C 120.276 81.262,119.921 79.714,119.921 77.823 C 119.921 75.074,119.525 74.085,117.949 72.902 C 116.864 72.087,115.976 70.810,115.976 70.064 C 115.976 68.218,107.664 59.961,105.805 59.961 C 104.983 59.961,104.106 59.428,103.857 58.777 C 103.607 58.126,102.681 57.594,101.800 57.594 C 100.918 57.594,100.197 57.239,100.197 56.805 C 100.197 56.366,98.085 56.016,95.439 56.016 C 91.937 56.016,90.560 55.703,90.226 54.832 C 89.976 54.181,88.911 53.649,87.859 53.649 C 86.807 53.649,85.742 54.181,85.492 54.832 M262.722 143.590 C 262.722 144.054,259.952 144.379,255.991 144.379 C 250.736 144.379,249.161 144.638,248.806 145.562 C 248.526 146.292,247.327 146.746,245.675 146.746 C 244.203 146.746,242.998 147.101,242.998 147.535 C 242.998 147.968,242.148 148.323,241.110 148.323 C 240.072 148.323,239.018 148.856,238.768 149.507 C 238.505 150.192,237.325 150.690,235.969 150.690 C 234.679 150.690,233.404 151.045,233.136 151.479 C 232.868 151.913,232.108 152.268,231.448 152.268 C 229.937 152.268,214.023 168.312,213.659 170.202 C 213.510 170.978,212.695 171.598,211.824 171.598 C 210.341 171.598,210.245 170.972,210.038 159.961 L 209.820 148.323 182.227 148.323 L 154.635 148.323 154.635 242.604 L 154.635 336.884 183.432 336.884 L 212.229 336.884 212.229 283.629 C 212.229 248.652,212.500 230.375,213.018 230.375 C 213.469 230.375,213.807 228.000,213.807 224.827 C 213.807 220.624,214.093 219.170,214.990 218.826 C 215.644 218.575,216.174 217.404,216.174 216.210 C 216.174 211.858,226.806 198.817,230.354 198.817 C 231.141 198.817,231.988 198.284,232.238 197.633 C 232.501 196.948,233.680 196.450,235.037 196.450 C 236.327 196.450,237.602 196.095,237.870 195.661 C 238.145 195.216,241.954 194.872,246.595 194.872 C 251.561 194.872,254.832 195.185,254.832 195.661 C 254.832 196.095,256.037 196.450,257.509 196.450 C 259.161 196.450,260.360 196.903,260.640 197.633 C 260.890 198.284,261.727 198.819,262.500 198.822 C 264.236 198.828,272.978 207.639,272.978 209.383 C 272.978 210.080,273.333 210.651,273.767 210.651 C 274.201 210.651,274.556 211.850,274.556 213.316 C 274.556 214.781,275.089 216.422,275.740 216.963 C 276.563 217.646,276.923 219.461,276.923 222.930 C 276.923 225.671,277.278 228.134,277.712 228.402 C 278.226 228.720,278.501 247.740,278.501 282.887 L 278.501 336.884 307.298 336.884 L 336.095 336.884 336.095 274.162 C 336.095 232.873,335.825 211.440,335.306 211.440 C 334.836 211.440,334.517 208.448,334.517 204.041 C 334.517 198.427,334.231 196.406,333.333 195.661 C 332.611 195.061,332.150 193.332,332.150 191.225 C 332.150 189.325,331.795 187.771,331.361 187.771 C 330.927 187.771,330.572 186.567,330.572 185.094 C 330.572 183.443,330.119 182.243,329.389 181.963 C 328.738 181.713,328.205 180.809,328.205 179.953 C 328.205 179.097,327.850 178.177,327.416 177.909 C 326.982 177.641,326.627 176.771,326.627 175.975 C 326.627 175.179,326.095 174.323,325.444 174.074 C 324.755 173.809,324.260 172.628,324.260 171.249 C 324.260 168.805,311.317 154.653,309.052 154.621 C 308.521 154.614,307.251 153.726,306.229 152.649 C 305.207 151.572,303.687 150.690,302.851 150.690 C 302.015 150.690,301.127 150.158,300.877 149.507 C 300.597 148.777,299.398 148.323,297.746 148.323 C 296.274 148.323,295.069 147.968,295.069 147.535 C 295.069 147.101,293.460 146.746,291.494 146.746 C 289.044 146.746,287.776 146.373,287.465 145.562 C 287.103 144.621,285.416 144.379,279.206 144.379 C 274.528 144.379,271.400 144.063,271.400 143.590 C 271.400 143.156,269.448 142.801,267.061 142.801 C 264.675 142.801,262.722 143.156,262.722 143.590 M59.961 242.604 L 59.961 336.884 88.757 336.884 L 117.554 336.884 117.554 242.604 L 117.554 148.323 88.757 148.323 L 59.961 148.323 59.961 242.604 M0.000 383.780 L 0.000 394.477 9.467 394.477 C 15.253 394.477,18.935 394.171,18.935 393.688 C 18.935 393.254,18.246 392.899,17.404 392.899 C 16.561 392.899,15.653 392.544,15.385 392.110 C 15.116 391.677,14.357 391.321,13.697 391.321 C 12.108 391.321,3.156 382.330,3.156 380.734 C 3.156 380.048,2.801 379.487,2.367 379.487 C 1.933 379.487,1.578 378.266,1.578 376.772 C 1.578 375.279,1.223 373.838,0.789 373.570 C 0.278 373.254,0.000 376.849,0.000 383.780 " stroke="none" fill="white" fill-rule="evenodd"></path>
    <path class="equipsvg" id="path1" d="M20.513 1.183 C 20.513 1.906,19.777 2.367,18.625 2.367 C 17.586 2.367,16.533 2.899,16.283 3.550 C 16.033 4.201,15.262 4.734,14.569 4.734 C 12.930 4.734,4.734 12.930,4.734 14.569 C 4.734 15.262,4.201 16.033,3.550 16.283 C 2.820 16.563,2.367 17.762,2.367 19.414 C 2.367 21.267,2.003 22.091,1.183 22.091 C 0.135 22.091,0.000 42.078,0.000 197.239 C 0.000 352.400,0.135 372.387,1.183 372.387 C 2.003 372.387,2.367 373.210,2.367 375.064 C 2.367 376.715,2.820 377.914,3.550 378.195 C 4.201 378.444,4.734 379.283,4.734 380.059 C 4.734 381.785,12.815 389.744,14.567 389.744 C 15.261 389.744,16.033 390.276,16.283 390.927 C 16.533 391.578,17.586 392.110,18.625 392.110 C 19.777 392.110,20.513 392.572,20.513 393.294 C 20.513 394.342,40.675 394.477,197.239 394.477 C 353.802 394.477,373.964 394.342,373.964 393.294 C 373.964 392.501,374.758 392.110,376.369 392.110 C 377.920 392.110,379.422 391.411,380.602 390.138 C 381.607 389.053,382.983 388.166,383.659 388.166 C 385.395 388.166,389.744 383.612,389.744 381.793 C 389.744 380.959,390.099 380.276,390.533 380.276 C 390.966 380.276,391.321 379.555,391.321 378.673 C 391.321 377.792,391.854 376.866,392.505 376.617 C 393.334 376.299,393.688 375.006,393.688 372.302 C 393.688 370.179,394.043 368.442,394.477 368.442 C 395.001 368.442,395.266 310.848,395.266 197.239 C 395.266 83.629,395.001 26.036,394.477 26.036 C 394.043 26.036,393.688 24.481,393.688 22.582 C 393.688 20.474,393.227 18.745,392.505 18.146 C 391.854 17.606,391.321 16.497,391.321 15.682 C 391.321 14.868,390.966 14.201,390.533 14.201 C 390.099 14.201,389.744 13.569,389.744 12.797 C 389.744 11.243,384.914 6.312,383.393 6.312 C 382.863 6.312,381.607 5.424,380.602 4.339 C 379.422 3.067,377.920 2.367,376.369 2.367 C 374.758 2.367,373.964 1.977,373.964 1.183 C 373.964 0.135,353.802 0.000,197.239 0.000 C 40.675 0.000,20.513 0.135,20.513 1.183 M91.519 53.649 C 91.519 54.083,93.483 54.438,95.883 54.438 C 99.034 54.438,100.373 54.767,100.701 55.621 C 100.951 56.272,102.005 56.805,103.043 56.805 C 104.081 56.805,104.931 57.160,104.931 57.594 C 104.931 58.028,105.502 58.383,106.199 58.383 C 107.719 58.383,116.752 67.019,116.760 68.479 C 116.763 69.043,117.653 70.326,118.738 71.331 C 120.282 72.763,120.710 73.934,120.710 76.732 C 120.710 79.180,121.083 80.448,121.893 80.759 C 122.829 81.118,123.077 82.765,123.077 88.636 C 123.077 94.272,122.792 96.296,121.893 97.041 C 121.243 97.582,120.710 99.223,120.710 100.688 C 120.710 102.154,120.355 103.353,119.921 103.353 C 119.487 103.353,119.132 104.013,119.132 104.820 C 119.132 105.628,118.245 106.954,117.160 107.769 C 116.075 108.584,115.176 109.787,115.161 110.444 C 115.121 112.248,112.365 115.187,110.712 115.187 C 109.908 115.187,108.584 116.075,107.769 117.160 C 106.954 118.245,105.648 119.132,104.867 119.132 C 104.086 119.132,103.227 119.487,102.959 119.921 C 102.690 120.355,101.416 120.710,100.126 120.710 C 98.769 120.710,97.589 121.209,97.327 121.893 C 96.964 122.839,95.243 123.077,88.757 123.077 C 82.272 123.077,80.551 122.839,80.188 121.893 C 79.885 121.104,78.641 120.710,76.447 120.710 C 73.954 120.710,72.718 120.234,71.331 118.738 C 70.326 117.653,68.954 116.765,68.282 116.765 C 66.521 116.765,58.383 108.305,58.383 106.474 C 58.383 105.625,58.028 104.931,57.594 104.931 C 57.160 104.931,56.805 104.210,56.805 103.328 C 56.805 102.447,56.272 101.521,55.621 101.272 C 54.755 100.939,54.438 99.573,54.438 96.168 C 54.438 93.594,54.086 91.519,53.649 91.519 C 53.215 91.519,52.860 89.921,52.860 87.968 C 52.860 86.016,53.215 84.418,53.649 84.418 C 54.088 84.418,54.438 82.306,54.438 79.660 C 54.438 76.158,54.750 74.781,55.621 74.447 C 56.272 74.197,56.805 73.358,56.805 72.582 C 56.805 71.806,57.686 70.335,58.763 69.314 C 59.841 68.292,60.728 66.985,60.736 66.409 C 60.755 64.970,65.090 60.750,66.549 60.750 C 67.201 60.750,68.434 59.862,69.287 58.777 C 70.140 57.692,71.548 56.805,72.416 56.805 C 73.283 56.805,74.197 56.272,74.447 55.621 C 74.781 54.750,76.158 54.438,79.660 54.438 C 82.306 54.438,84.418 54.088,84.418 53.649 C 84.418 53.215,86.016 52.860,87.968 52.860 C 89.921 52.860,91.519 53.215,91.519 53.649 M272.693 142.406 C 273.052 143.341,274.693 143.590,280.511 143.590 C 284.570 143.590,288.094 143.944,288.363 144.379 C 288.631 144.813,290.438 145.168,292.379 145.168 C 294.788 145.168,296.052 145.543,296.362 146.351 C 296.642 147.081,297.841 147.535,299.493 147.535 C 300.965 147.535,302.170 147.890,302.170 148.323 C 302.170 148.757,302.791 149.119,303.550 149.126 C 304.310 149.134,305.767 150.021,306.789 151.098 C 307.811 152.176,309.170 153.057,309.810 153.057 C 312.165 153.057,325.838 167.759,325.838 170.291 C 325.838 171.627,326.341 172.805,327.022 173.066 C 327.673 173.316,328.205 174.221,328.205 175.077 C 328.205 175.932,328.560 176.852,328.994 177.120 C 329.428 177.388,329.783 178.259,329.783 179.055 C 329.783 179.851,330.316 180.706,330.966 180.956 C 331.709 181.241,332.150 182.447,332.150 184.196 C 332.150 185.729,332.505 186.982,332.939 186.982 C 333.373 186.982,333.728 188.719,333.728 190.843 C 333.728 193.546,334.082 194.839,334.911 195.157 C 335.849 195.517,336.095 197.175,336.095 203.131 C 336.095 207.618,336.413 210.651,336.884 210.651 C 337.403 210.651,337.673 232.350,337.673 274.171 L 337.673 337.691 307.495 337.485 L 277.318 337.278 277.115 283.432 C 276.983 248.447,276.638 229.586,276.129 229.586 C 275.681 229.586,275.345 227.088,275.345 223.753 C 275.345 219.296,275.066 217.813,274.162 217.466 C 273.419 217.181,272.978 215.975,272.978 214.226 C 272.978 212.694,272.623 211.440,272.189 211.440 C 271.755 211.440,271.400 210.768,271.400 209.948 C 271.400 208.008,262.998 199.606,261.058 199.606 C 260.238 199.606,259.566 199.250,259.566 198.817 C 259.566 198.383,258.312 198.028,256.780 198.028 C 255.031 198.028,253.825 197.587,253.540 196.844 C 253.183 195.915,251.578 195.661,246.069 195.661 C 240.359 195.661,239.053 195.881,239.053 196.844 C 239.053 197.667,238.226 198.028,236.338 198.028 C 234.845 198.028,233.404 198.383,233.136 198.817 C 232.868 199.250,232.149 199.606,231.539 199.606 C 229.835 199.606,219.329 210.490,219.329 212.256 C 219.329 213.109,218.974 213.807,218.540 213.807 C 218.107 213.807,217.751 214.883,217.751 216.198 C 217.751 217.596,217.260 218.779,216.568 219.044 C 215.664 219.391,215.385 220.874,215.385 225.331 C 215.385 228.666,215.049 231.164,214.601 231.164 C 214.092 231.164,213.747 249.762,213.615 284.221 L 213.412 337.278 183.235 337.485 L 153.057 337.691 153.057 242.613 L 153.057 147.535 182.249 147.535 L 211.440 147.535 211.547 159.566 C 211.606 166.183,211.815 170.747,212.012 169.707 C 212.482 167.214,228.222 151.479,230.244 151.479 C 231.091 151.479,231.988 150.947,232.238 150.296 C 232.501 149.611,233.680 149.112,235.037 149.112 C 236.327 149.112,237.602 148.757,237.870 148.323 C 238.138 147.890,239.009 147.535,239.804 147.535 C 240.600 147.535,241.456 147.002,241.705 146.351 C 241.990 145.608,243.197 145.168,244.946 145.168 C 246.478 145.168,247.732 144.813,247.732 144.379 C 247.732 143.915,250.465 143.590,254.353 143.590 C 259.512 143.590,261.076 143.328,261.429 142.406 C 261.769 141.521,263.187 141.223,267.061 141.223 C 270.936 141.223,272.353 141.521,272.693 142.406 M118.738 242.604 L 118.738 337.278 88.560 337.485 L 58.383 337.691 58.383 242.604 L 58.383 147.516 88.560 147.722 L 118.738 147.929 118.738 242.604 " stroke="none" fill="#F26A73" fill-rule="evenodd"></path>
    <path class="equipsvg" id="path2" d="M14.596 3.712 C 12.318 4.252,4.154 12.492,3.737 14.672 C 3.543 15.689,3.688 16.333,4.059 16.103 C 4.430 15.874,4.734 15.151,4.734 14.498 C 4.734 12.951,12.951 4.734,14.498 4.734 C 15.151 4.734,15.905 4.379,16.174 3.945 C 16.442 3.511,16.551 3.197,16.417 3.247 C 16.283 3.298,15.464 3.507,14.596 3.712 M385.463 7.298 C 385.684 7.840,386.827 8.963,388.002 9.793 C 390.135 11.299,390.134 11.298,387.821 8.807 C 385.290 6.082,384.850 5.800,385.463 7.298 M391.413 15.485 C 391.363 16.408,391.943 17.651,392.702 18.247 C 393.903 19.188,393.965 19.175,393.182 18.146 C 392.686 17.495,392.106 16.252,391.892 15.385 C 391.524 13.886,391.500 13.891,391.413 15.485 M395.654 197.239 C 395.654 291.617,395.746 330.227,395.858 283.037 C 395.970 235.848,395.970 158.629,395.858 111.440 C 395.746 64.250,395.654 102.860,395.654 197.239 M90.673 53.975 C 91.621 55.117,101.165 56.144,100.472 55.030 C 100.270 54.704,98.172 54.438,95.811 54.438 C 93.450 54.438,91.519 54.083,91.519 53.649 C 91.519 53.215,91.120 52.860,90.633 52.860 C 89.997 52.860,90.009 53.174,90.673 53.975 M74.688 54.964 C 74.398 55.253,74.167 55.874,74.174 56.345 C 74.181 56.885,74.406 56.853,74.784 56.258 C 75.114 55.740,77.505 55.186,80.098 55.026 L 84.813 54.736 80.013 54.587 C 77.373 54.505,74.977 54.675,74.688 54.964 M69.097 58.999 L 67.582 61.144 69.689 59.231 C 71.902 57.221,72.175 56.789,71.203 56.830 C 70.878 56.843,69.930 57.819,69.097 58.999 M59.566 68.454 C 59.132 68.773,58.255 69.744,57.618 70.611 C 56.761 71.777,57.019 71.689,58.604 70.277 C 60.535 68.555,61.122 67.827,60.552 67.862 C 60.444 67.869,60.000 68.135,59.566 68.454 M54.763 75.242 C 54.535 75.836,54.480 78.233,54.642 80.567 L 54.935 84.813 55.081 79.947 C 55.172 76.913,55.598 74.932,56.213 74.684 C 56.985 74.373,56.980 74.273,56.188 74.224 C 55.632 74.190,54.991 74.648,54.763 75.242 M122.146 88.091 C 122.326 93.410,122.099 95.946,121.357 96.894 C 120.422 98.089,120.456 98.115,121.696 97.142 C 123.140 96.010,123.833 81.826,122.485 80.987 C 122.160 80.785,122.007 83.981,122.146 88.091 M52.860 90.633 C 52.860 91.120,53.215 91.519,53.649 91.519 C 54.086 91.519,54.438 93.594,54.438 96.168 C 54.438 99.870,54.719 100.925,55.819 101.343 C 56.926 101.764,57.004 101.672,56.213 100.875 C 55.671 100.329,55.227 98.043,55.227 95.797 C 55.227 93.128,54.816 91.371,54.043 90.730 C 53.226 90.051,52.860 90.021,52.860 90.633 M119.277 102.735 C 118.763 103.249,118.343 104.278,118.343 105.023 C 118.343 105.768,117.979 106.558,117.535 106.778 C 117.090 106.999,117.179 107.088,117.732 106.976 C 118.285 106.864,118.868 106.092,119.026 105.260 C 119.185 104.428,119.707 103.501,120.187 103.199 C 120.666 102.897,120.868 102.459,120.635 102.226 C 120.401 101.992,119.790 102.222,119.277 102.735 M58.445 106.671 C 58.386 107.942,66.413 116.765,67.628 116.765 C 67.940 116.765,66.206 114.724,63.776 112.229 C 61.345 109.734,59.165 107.160,58.932 106.509 C 58.590 105.558,58.495 105.589,58.445 106.671 M114.490 110.134 C 114.385 112.021,112.376 114.055,110.059 114.620 C 108.768 114.934,108.840 115.016,110.454 115.071 C 112.739 115.148,115.489 111.940,114.938 109.840 C 114.658 108.772,114.562 108.835,114.490 110.134 M106.509 117.423 C 106.509 117.929,105.842 118.343,105.028 118.343 C 104.213 118.343,103.076 118.964,102.502 119.724 C 101.613 120.898,101.622 120.957,102.563 120.118 C 103.171 119.576,104.287 119.132,105.042 119.132 C 106.518 119.132,107.759 117.753,106.982 116.976 C 106.722 116.715,106.509 116.917,106.509 117.423 M80.117 121.696 C 80.907 123.772,96.608 123.772,97.398 121.696 C 97.820 120.589,97.727 120.511,96.930 121.302 C 96.282 121.946,93.445 122.288,88.757 122.288 C 84.070 122.288,81.233 121.946,80.584 121.302 C 79.788 120.511,79.695 120.589,80.117 121.696 M261.527 142.030 C 261.230 142.512,261.199 143.119,261.459 143.379 C 261.720 143.640,261.933 143.439,261.933 142.932 C 261.933 141.766,271.884 141.661,272.459 142.821 C 272.679 143.265,272.770 143.177,272.659 142.623 C 272.397 141.312,262.303 140.774,261.527 142.030 M247.732 144.200 C 247.732 144.680,246.428 145.183,244.834 145.317 C 243.240 145.452,241.847 146.015,241.738 146.568 C 241.628 147.121,241.719 147.210,241.940 146.765 C 242.160 146.321,243.533 145.957,244.990 145.957 C 247.513 145.957,249.218 144.813,248.205 143.800 C 247.945 143.540,247.732 143.720,247.732 144.200 M287.868 144.576 C 288.599 145.508,290.050 145.957,292.339 145.957 C 294.202 145.957,295.907 146.321,296.128 146.765 C 296.348 147.210,296.439 147.121,296.329 146.568 C 296.213 145.984,294.672 145.457,292.656 145.311 C 290.746 145.172,288.643 144.640,287.984 144.127 C 286.937 143.313,286.922 143.370,287.868 144.576 M58.383 242.604 C 58.383 294.892,58.649 337.673,58.974 337.673 C 59.300 337.673,59.566 294.892,59.566 242.604 C 59.566 190.316,59.300 147.535,58.974 147.535 C 58.649 147.535,58.383 190.316,58.383 242.604 M117.949 242.604 C 117.949 294.809,118.215 337.357,118.540 337.156 C 119.314 336.678,119.314 148.529,118.540 148.051 C 118.215 147.850,117.949 190.398,117.949 242.604 M153.057 242.604 C 153.057 294.892,153.323 337.673,153.649 337.673 C 153.974 337.673,154.241 294.892,154.241 242.604 C 154.241 190.316,153.974 147.535,153.649 147.535 C 153.323 147.535,153.057 190.316,153.057 242.604 M237.870 148.323 C 237.602 148.757,236.359 149.112,235.108 149.112 C 233.858 149.112,232.661 149.393,232.449 149.736 C 231.772 150.831,237.382 149.781,238.333 148.635 C 238.836 148.030,239.046 147.535,238.802 147.535 C 238.557 147.535,238.138 147.890,237.870 148.323 M301.308 148.631 C 302.295 149.819,306.334 150.896,305.649 149.787 C 305.420 149.416,304.543 149.112,303.701 149.112 C 302.859 149.112,302.170 148.757,302.170 148.323 C 302.170 147.890,301.771 147.535,301.284 147.535 C 300.641 147.535,300.647 147.834,301.308 148.631 M227.022 153.028 C 225.013 154.985,225.326 155.779,227.359 153.885 C 228.304 153.005,228.925 152.149,228.739 151.984 C 228.554 151.818,227.781 152.288,227.022 153.028 M307.630 152.465 C 308.204 153.225,309.128 153.846,309.682 153.846 C 311.866 153.846,325.049 168.196,325.049 170.573 C 325.049 171.852,325.562 173.027,326.233 173.285 C 326.884 173.534,327.416 174.390,327.416 175.186 C 327.416 175.982,327.771 176.852,328.205 177.120 C 328.639 177.388,328.994 178.308,328.994 179.164 C 328.994 180.020,329.527 180.924,330.178 181.174 C 330.888 181.447,331.361 182.636,331.361 184.148 C 331.361 185.533,331.692 187.004,332.097 187.416 C 332.502 187.828,332.975 189.586,333.148 191.321 C 333.460 194.450,333.464 194.445,333.595 190.730 C 333.668 188.669,333.373 186.982,332.939 186.982 C 332.505 186.982,332.150 185.729,332.150 184.196 C 332.150 182.447,331.709 181.241,330.966 180.956 C 330.316 180.706,329.783 179.851,329.783 179.055 C 329.783 178.259,329.428 177.388,328.994 177.120 C 328.560 176.852,328.205 175.932,328.205 175.077 C 328.205 174.221,327.673 173.316,327.022 173.066 C 326.341 172.805,325.838 171.627,325.838 170.291 C 325.838 167.806,312.186 153.057,309.885 153.057 C 309.287 153.057,308.299 152.613,307.691 152.071 C 306.750 151.232,306.741 151.291,307.630 152.465 M218.343 161.795 C 214.980 165.185,212.231 168.599,212.234 169.383 C 212.237 170.483,212.475 170.358,213.273 168.836 C 213.842 167.751,216.742 164.470,219.716 161.543 C 222.691 158.617,224.975 156.090,224.791 155.928 C 224.608 155.766,221.706 158.406,218.343 161.795 M335.131 202.242 C 335.251 206.216,335.703 210.178,336.134 211.045 C 336.640 212.062,336.842 234.858,336.704 275.148 C 336.586 309.537,336.755 337.673,337.081 337.673 C 337.406 337.673,337.673 309.093,337.673 274.162 C 337.673 232.347,337.403 210.651,336.884 210.651 C 336.413 210.651,336.095 207.642,336.095 203.202 C 336.095 199.106,335.828 195.588,335.503 195.386 C 335.178 195.183,335.010 198.269,335.131 202.242 M253.452 196.450 C 253.636 197.134,254.906 197.743,256.464 197.895 C 257.946 198.038,259.454 198.571,259.816 199.078 C 260.266 199.707,260.374 199.624,260.157 198.817 C 259.973 198.132,258.703 197.523,257.145 197.372 C 255.664 197.228,254.155 196.695,253.793 196.188 C 253.344 195.559,253.235 195.642,253.452 196.450 M236.153 197.016 C 234.775 197.189,233.195 197.931,232.641 198.665 C 231.789 199.795,231.805 199.848,232.740 199.014 C 233.348 198.471,235.018 198.028,236.450 198.028 C 237.882 198.028,239.053 197.673,239.053 197.239 C 239.053 196.805,238.964 196.507,238.856 196.576 C 238.748 196.645,237.531 196.843,236.153 197.016 M273.272 214.140 C 273.338 216.161,273.784 217.346,274.556 217.553 C 275.363 217.770,275.447 217.662,274.818 217.213 C 274.311 216.851,273.733 215.315,273.534 213.800 C 273.187 211.161,273.176 211.175,273.272 214.140 M217.963 213.196 C 216.969 214.441,216.217 219.396,217.105 218.847 C 217.461 218.627,217.751 217.433,217.751 216.193 C 217.751 214.953,218.195 213.780,218.738 213.586 C 219.280 213.392,219.508 212.999,219.245 212.712 C 218.981 212.425,218.404 212.643,217.963 213.196 M275.345 228.700 C 275.345 229.187,275.700 229.586,276.134 229.586 C 276.652 229.586,276.923 247.979,276.923 283.188 C 276.923 312.669,277.189 336.955,277.515 337.156 C 278.786 337.942,277.791 229.845,276.518 228.788 C 275.703 228.112,275.345 228.085,275.345 228.700 M213.018 284.182 C 212.801 313.559,212.892 337.325,213.221 336.997 C 213.549 336.668,213.727 312.632,213.615 283.584 L 213.412 230.769 213.018 284.182 M3.136 378.429 C 3.581 378.649,3.945 379.433,3.945 380.169 C 3.945 381.878,12.639 390.533,14.356 390.533 C 15.066 390.533,15.828 390.896,16.049 391.341 C 16.269 391.786,16.358 391.697,16.246 391.144 C 16.134 390.591,15.379 390.009,14.568 389.852 C 12.602 389.471,4.952 381.862,4.610 379.947 C 4.461 379.115,3.887 378.343,3.333 378.231 C 2.780 378.119,2.691 378.208,3.136 378.429 " stroke="none" fill="#F26A73" fill-rule="evenodd"></path>
    <path class="equipsvg" id="path3" d="M374.162 0.789 C 374.358 1.517,375.519 2.015,377.181 2.083 C 379.655 2.185,379.683 2.163,377.517 1.815 C 376.217 1.606,374.859 1.024,374.499 0.521 C 374.057 -0.097,373.948 -0.010,374.162 0.789 M382.261 5.542 C 382.458 5.862,383.502 6.292,384.580 6.498 C 385.658 6.704,386.378 6.611,386.181 6.292 C 385.984 5.972,384.940 5.542,383.862 5.336 C 382.784 5.130,382.063 5.223,382.261 5.542 M389.557 11.475 C 389.763 12.553,390.193 13.597,390.513 13.794 C 390.832 13.992,390.925 13.271,390.719 12.193 C 390.513 11.115,390.083 10.072,389.763 9.874 C 389.444 9.677,389.351 10.397,389.557 11.475 M2.525 15.937 C 2.004 16.458,1.578 17.848,1.578 19.027 C 1.578 20.206,1.214 21.351,0.769 21.571 C 0.324 21.792,0.413 21.883,0.966 21.773 C 1.520 21.664,2.093 20.537,2.239 19.269 C 2.386 18.000,2.874 16.519,3.322 15.976 C 4.363 14.718,3.773 14.689,2.525 15.937 M393.565 21.141 C 393.717 23.182,394.074 25.102,394.359 25.407 C 394.644 25.712,394.753 24.292,394.601 22.251 C 394.449 20.210,394.091 18.291,393.806 17.985 C 393.521 17.680,393.413 19.100,393.565 21.141 M84.915 53.484 C 84.702 53.827,85.747 53.966,87.235 53.792 C 88.723 53.618,89.941 53.338,89.941 53.168 C 89.941 52.574,85.296 52.866,84.915 53.484 M100.604 56.825 C 100.801 57.144,101.845 57.574,102.923 57.780 C 104.001 57.986,104.722 57.893,104.524 57.574 C 104.327 57.254,103.283 56.825,102.205 56.618 C 101.127 56.412,100.407 56.505,100.604 56.825 M67.456 60.523 C 65.039 61.104,64.297 62.185,66.619 61.741 C 67.743 61.526,68.856 61.037,69.092 60.655 C 69.328 60.273,69.411 60.002,69.277 60.052 C 69.143 60.102,68.323 60.314,67.456 60.523 M61.119 65.878 C 60.916 66.529,60.576 67.612,60.364 68.286 C 60.152 68.959,60.287 69.319,60.664 69.086 C 61.041 68.853,61.521 67.770,61.729 66.678 C 62.142 64.522,61.717 63.965,61.119 65.878 M119.798 76.368 C 119.950 78.409,120.307 80.329,120.592 80.634 C 120.877 80.939,120.986 79.519,120.834 77.478 C 120.682 75.437,120.324 73.517,120.039 73.212 C 119.754 72.907,119.646 74.327,119.798 76.368 M53.167 85.544 C 52.930 86.164,52.867 87.495,53.029 88.503 C 53.245 89.851,53.428 89.553,53.722 87.377 C 54.135 84.314,53.917 83.592,53.167 85.544 M120.228 97.379 C 119.991 97.998,119.929 99.329,120.090 100.337 C 120.306 101.685,120.490 101.388,120.783 99.211 C 121.196 96.148,120.978 95.426,120.228 97.379 M56.612 102.169 C 56.814 103.228,57.561 104.531,58.273 105.066 C 59.361 105.884,59.410 105.863,58.580 104.932 C 58.037 104.324,57.594 103.208,57.594 102.453 C 57.594 101.697,57.290 100.892,56.919 100.662 C 56.547 100.433,56.409 101.111,56.612 102.169 M68.639 116.532 C 69.290 116.768,70.710 117.771,71.795 118.759 C 73.645 120.445,81.676 122.018,80.746 120.513 C 80.545 120.187,78.865 119.921,77.014 119.921 C 74.444 119.921,73.210 119.455,71.795 117.949 C 70.776 116.864,69.382 116.004,68.699 116.039 C 67.635 116.092,67.626 116.163,68.639 116.532 M96.749 120.545 C 96.537 120.888,97.581 121.027,99.069 120.853 C 100.557 120.680,101.775 120.399,101.775 120.229 C 101.775 119.636,97.131 119.927,96.749 120.545 M251.898 144.171 C 253.972 144.334,257.167 144.332,258.998 144.166 C 260.829 144.001,259.132 143.867,255.227 143.870 C 251.321 143.872,249.823 144.008,251.898 144.171 M279.247 144.180 C 283.473 144.328,287.230 144.855,287.926 145.397 C 289.004 146.236,289.021 146.184,288.069 144.970 C 287.154 143.803,285.811 143.615,279.391 143.753 L 271.795 143.917 279.247 144.180 M242.209 146.614 C 242.209 147.120,241.542 147.535,240.728 147.535 C 239.913 147.535,238.776 148.156,238.202 148.915 C 237.313 150.090,237.322 150.149,238.263 149.310 C 238.871 148.767,239.987 148.323,240.742 148.323 C 242.219 148.323,243.460 146.944,242.683 146.167 C 242.422 145.907,242.209 146.108,242.209 146.614 M295.267 146.746 C 295.463 147.474,296.623 147.972,298.286 148.040 C 300.760 148.142,300.788 148.119,298.622 147.772 C 297.322 147.563,295.963 146.980,295.603 146.477 C 295.161 145.859,295.052 145.946,295.267 146.746 M74.411 148.125 C 82.575 148.254,95.711 148.253,103.602 148.125 C 111.493 147.996,104.813 147.891,88.757 147.892 C 72.702 147.892,66.246 147.997,74.411 148.125 M182.840 148.121 L 210.651 148.343 210.651 159.727 C 210.651 170.219,211.232 173.455,212.691 171.094 C 213.042 170.525,212.920 170.382,212.372 170.720 C 211.731 171.117,211.421 168.012,211.264 159.599 L 211.045 147.929 183.037 147.914 L 155.030 147.899 182.840 148.121 M232.308 150.614 C 231.895 151.006,230.848 151.497,229.980 151.706 C 228.484 152.066,228.489 152.090,230.081 152.177 C 231.004 152.227,232.201 151.736,232.742 151.085 C 233.813 149.794,233.513 149.469,232.308 150.614 M326.719 174.854 C 326.668 175.777,327.249 177.020,328.008 177.615 C 329.209 178.557,329.271 178.544,328.487 177.515 C 327.992 176.864,327.411 175.621,327.198 174.753 C 326.830 173.255,326.806 173.260,326.719 174.854 M330.572 184.174 C 330.572 185.667,330.845 187.058,331.178 187.264 C 331.512 187.470,331.652 186.248,331.490 184.549 C 331.126 180.734,330.572 180.508,330.572 184.174 M333.531 194.870 C 334.169 195.586,334.517 198.550,334.517 203.267 C 334.517 207.277,334.783 210.723,335.108 210.926 C 336.462 211.768,335.242 195.798,333.874 194.767 C 332.750 193.919,332.697 193.935,333.531 194.870 M238.778 195.464 C 238.575 195.789,240.951 195.958,244.057 195.839 C 253.669 195.472,254.781 195.130,246.792 194.998 C 242.587 194.929,238.981 195.138,238.778 195.464 M232.308 197.951 C 231.895 198.343,230.848 198.834,229.980 199.043 C 228.484 199.403,228.489 199.427,230.081 199.514 C 231.004 199.564,232.201 199.073,232.742 198.422 C 233.813 197.132,233.513 196.806,232.308 197.951 M215.552 218.738 C 214.617 219.868,213.895 231.209,214.793 230.650 C 215.118 230.447,215.385 227.888,215.385 224.963 C 215.385 221.879,215.782 219.247,216.331 218.698 C 216.852 218.178,217.073 217.751,216.822 217.751 C 216.572 217.751,216.000 218.195,215.552 218.738 M275.604 222.880 C 275.608 225.917,275.750 227.063,275.921 225.426 C 276.092 223.789,276.089 221.304,275.915 219.904 C 275.740 218.503,275.601 219.842,275.604 222.880 M183.432 336.884 L 154.241 337.307 183.188 337.490 C 201.835 337.608,212.309 337.392,212.623 336.884 C 212.891 336.450,213.001 336.177,212.867 336.277 C 212.733 336.378,199.487 336.651,183.432 336.884 M278.392 337.091 C 278.723 337.422,291.931 337.599,307.742 337.485 L 336.489 337.277 307.139 336.883 C 290.997 336.666,278.061 336.760,278.392 337.091 M74.411 337.474 C 82.575 337.603,95.711 337.603,103.602 337.474 C 111.493 337.345,104.813 337.240,88.757 337.241 C 72.702 337.241,66.246 337.346,74.411 337.474 M394.108 369.428 C 393.513 371.262,393.252 377.083,393.790 376.508 C 394.084 376.194,394.450 374.250,394.604 372.189 C 394.882 368.461,394.718 367.547,394.108 369.428 M0.521 372.921 C 1.024 373.281,1.606 374.639,1.815 375.939 C 2.163 378.105,2.185 378.077,2.083 375.603 C 2.015 373.941,1.517 372.780,0.789 372.585 C -0.010 372.370,-0.097 372.479,0.521 372.921 M390.113 381.460 C 389.910 382.110,389.570 383.194,389.358 383.867 C 389.146 384.541,389.281 384.901,389.658 384.668 C 390.036 384.435,390.515 383.351,390.723 382.260 C 391.136 380.104,390.711 379.547,390.113 381.460 M384.279 388.069 C 383.227 388.363,382.277 389.047,382.169 389.588 C 382.061 390.129,382.153 390.208,382.373 389.763 C 382.594 389.319,383.434 388.955,384.240 388.955 C 385.046 388.955,385.925 388.600,386.193 388.166 C 386.461 387.732,386.571 387.412,386.437 387.455 C 386.303 387.499,385.332 387.775,384.279 388.069 M374.490 392.636 C 374.201 392.926,373.970 393.547,373.977 394.017 C 373.985 394.578,374.189 394.557,374.571 393.957 C 374.891 393.454,376.217 392.885,377.517 392.694 L 379.882 392.347 377.449 392.229 C 376.111 392.164,374.780 392.347,374.490 392.636 " stroke="none" fill="#F26A73" fill-rule="evenodd"></path>
    <path class="equipsvg" id="path4" d="M14.990 2.356 C 14.339 2.733,13.185 3.234,12.426 3.469 C 11.667 3.703,11.073 4.350,11.108 4.906 C 11.156 5.698,11.256 5.703,11.568 4.931 C 11.787 4.389,12.603 3.945,13.381 3.945 C 14.160 3.945,15.239 3.412,15.779 2.761 C 16.878 1.437,16.718 1.355,14.990 2.356 M381.065 3.550 C 382.084 4.635,383.050 5.523,383.212 5.523 C 383.867 5.523,380.616 1.626,379.941 1.603 C 379.540 1.589,380.046 2.465,381.065 3.550 M3.468 12.426 C 3.233 13.185,2.654 14.517,2.183 15.385 C 1.414 16.798,1.461 16.850,2.635 15.880 C 3.355 15.284,3.945 14.160,3.945 13.381 C 3.945 12.603,4.389 11.787,4.931 11.568 C 5.703 11.256,5.698 11.156,4.906 11.108 C 4.350 11.073,3.703 11.667,3.468 12.426 M391.125 13.591 C 391.574 14.144,392.115 15.306,392.329 16.174 C 392.634 17.418,392.736 17.311,392.808 15.666 C 392.864 14.398,392.392 13.386,391.604 13.084 C 390.628 12.710,390.510 12.835,391.125 13.591 M395.069 25.358 C 396.518 26.817,396.518 367.660,395.069 369.120 C 394.278 369.916,394.356 370.009,395.464 369.588 C 396.773 369.089,396.844 360.154,396.844 197.239 C 396.844 34.324,396.773 25.388,395.464 24.890 C 394.356 24.468,394.278 24.561,395.069 25.358 M84.813 54.438 C 84.544 54.872,82.437 55.227,80.129 55.227 C 77.362 55.227,75.598 55.630,74.951 56.410 C 74.272 57.228,74.242 57.594,74.854 57.594 C 75.341 57.594,75.740 57.239,75.740 56.805 C 75.740 56.368,77.815 56.016,80.389 56.016 C 83.794 56.016,85.160 55.699,85.492 54.832 C 86.005 53.497,85.555 53.236,84.813 54.438 M90.141 54.438 C 90.380 55.324,91.733 55.639,95.526 55.691 L 100.592 55.760 95.877 55.449 C 93.284 55.278,90.860 54.714,90.491 54.196 C 90.022 53.537,89.917 53.609,90.141 54.438 M103.814 58.666 C 104.116 59.453,105.128 59.925,106.396 59.869 C 108.041 59.797,108.148 59.696,106.903 59.390 C 106.036 59.176,104.874 58.635,104.321 58.186 C 103.564 57.571,103.439 57.690,103.814 58.666 M63.511 63.905 C 62.264 65.207,61.471 66.272,61.749 66.272 C 62.321 66.272,66.272 62.450,66.272 61.897 C 66.272 61.190,65.745 61.574,63.511 63.905 M115.976 70.716 C 115.976 71.284,119.158 74.162,119.785 74.162 C 120.011 74.162,119.362 73.274,118.343 72.189 C 116.423 70.146,115.976 69.868,115.976 70.716 M56.160 75.122 C 55.647 75.635,55.227 77.866,55.227 80.079 C 55.227 82.292,54.783 84.550,54.241 85.096 C 53.450 85.893,53.528 85.985,54.635 85.564 C 55.731 85.147,56.016 84.094,56.016 80.455 C 56.016 77.502,56.367 75.746,57.002 75.519 C 57.544 75.325,57.787 74.947,57.541 74.677 C 57.295 74.408,56.674 74.608,56.160 75.122 M121.787 88.757 C 121.789 93.097,121.922 94.771,122.082 92.478 C 122.241 90.186,122.240 86.636,122.078 84.589 C 121.916 82.542,121.785 84.418,121.787 88.757 M54.196 90.491 C 54.714 90.860,55.278 93.284,55.449 95.877 L 55.760 100.592 55.691 95.526 C 55.639 91.733,55.324 90.380,54.438 90.141 C 53.609 89.917,53.537 90.022,54.196 90.491 M118.080 102.301 C 117.791 102.590,117.554 103.452,117.554 104.216 C 117.554 104.980,116.640 106.325,115.522 107.204 C 114.098 108.324,113.594 109.345,113.837 110.614 C 114.149 112.245,114.194 112.262,114.291 110.788 C 114.350 109.888,115.286 108.317,116.371 107.298 C 117.456 106.279,118.343 104.826,118.343 104.070 C 118.343 103.314,118.787 102.517,119.329 102.298 C 119.880 102.076,119.938 101.872,119.461 101.837 C 118.991 101.803,118.369 102.012,118.080 102.301 M58.186 104.321 C 58.635 104.874,59.176 106.036,59.390 106.903 C 59.696 108.148,59.797 108.041,59.869 106.396 C 59.925 105.128,59.453 104.116,58.666 103.814 C 57.690 103.439,57.571 103.564,58.186 104.321 M107.215 115.500 C 106.093 116.541,104.528 117.517,103.738 117.670 C 102.947 117.823,102.209 118.401,102.097 118.955 C 101.985 119.508,102.074 119.597,102.295 119.152 C 102.515 118.707,103.314 118.343,104.070 118.343 C 104.826 118.343,106.261 117.475,107.258 116.413 C 108.256 115.351,109.827 114.334,110.749 114.153 C 112.322 113.845,112.328 113.818,110.840 113.717 C 109.968 113.658,108.336 114.460,107.215 115.500 M71.795 117.949 C 72.814 119.034,73.780 119.921,73.942 119.921 C 74.597 119.921,71.346 116.024,70.671 116.001 C 70.270 115.987,70.776 116.864,71.795 117.949 M85.036 122.082 C 87.329 122.241,90.879 122.240,92.926 122.078 C 94.972 121.916,93.097 121.785,88.757 121.787 C 84.418 121.789,82.744 121.922,85.036 122.082 M262.318 142.816 C 262.019 143.299,261.988 143.908,262.248 144.168 C 262.509 144.429,262.722 144.227,262.722 143.721 C 262.722 142.561,271.098 142.456,271.670 143.609 C 271.891 144.054,271.981 143.965,271.871 143.412 C 271.611 142.110,263.083 141.578,262.318 142.816 M287.899 146.204 C 288.253 146.558,290.100 146.729,292.003 146.585 L 295.464 146.322 291.360 145.942 C 289.102 145.733,287.545 145.851,287.899 146.204 M244.388 146.515 C 245.369 146.703,246.789 146.696,247.544 146.499 C 248.298 146.301,247.495 146.147,245.759 146.156 C 244.024 146.164,243.407 146.326,244.388 146.515 M59.553 242.604 C 59.553 294.675,59.648 316.093,59.763 290.199 C 59.879 264.306,59.879 221.702,59.763 195.525 C 59.648 169.347,59.554 190.533,59.553 242.604 M117.936 242.604 C 117.936 294.675,118.030 316.093,118.146 290.199 C 118.261 264.306,118.261 221.702,118.146 195.525 C 118.031 169.347,117.936 190.533,117.936 242.604 M154.228 242.604 C 154.228 294.675,154.322 316.093,154.438 290.199 C 154.553 264.306,154.553 221.702,154.438 195.525 C 154.322 169.347,154.228 190.533,154.228 242.604 M210.008 159.520 C 209.928 165.894,210.128 171.276,210.454 171.478 C 210.779 171.681,210.952 168.240,210.837 163.832 C 210.460 149.329,210.156 147.749,210.008 159.520 M300.654 148.940 C 300.620 149.496,301.213 150.143,301.972 150.378 C 302.732 150.613,304.063 151.192,304.931 151.664 C 306.344 152.432,306.396 152.385,305.426 151.212 C 304.831 150.491,303.706 149.901,302.928 149.901 C 302.149 149.901,301.333 149.458,301.114 148.915 C 300.803 148.143,300.703 148.148,300.654 148.940 M236.153 149.679 C 234.775 149.851,233.195 150.593,232.641 151.328 C 231.789 152.457,231.805 152.511,232.740 151.677 C 233.348 151.134,234.819 150.690,236.009 150.690 C 237.198 150.690,238.391 150.335,238.659 149.901 C 238.927 149.467,239.037 149.169,238.903 149.239 C 238.768 149.308,237.531 149.506,236.153 149.679 M324.554 170.748 C 324.620 172.768,325.066 173.953,325.838 174.161 C 326.645 174.378,326.729 174.270,326.100 173.820 C 325.593 173.458,325.015 171.922,324.816 170.407 C 324.469 167.769,324.458 167.783,324.554 170.748 M327.232 177.909 C 327.704 178.777,328.282 180.108,328.517 180.868 C 328.752 181.627,329.399 182.220,329.956 182.186 C 330.747 182.137,330.753 182.038,329.980 181.726 C 329.438 181.507,328.994 180.691,328.994 179.913 C 328.994 179.134,328.405 178.010,327.684 177.414 C 326.510 176.444,326.463 176.496,327.232 177.909 M332.288 191.028 C 332.187 193.684,332.526 194.973,333.531 195.761 C 334.737 196.707,334.793 196.693,333.979 195.645 C 333.467 194.986,332.907 192.856,332.736 190.912 L 332.426 187.377 332.288 191.028 M237.870 195.661 C 237.602 196.095,236.359 196.450,235.108 196.450 C 233.858 196.450,232.666 196.723,232.460 197.056 C 232.254 197.389,233.451 197.532,235.120 197.373 C 236.789 197.214,238.346 196.586,238.579 195.978 C 239.068 194.704,238.592 194.492,237.870 195.661 M254.242 195.661 C 254.449 196.433,255.634 196.879,257.655 196.945 C 260.619 197.041,260.634 197.030,257.995 196.683 C 256.480 196.484,254.944 195.906,254.582 195.399 C 254.133 194.770,254.024 194.854,254.242 195.661 M221.466 206.298 C 217.633 210.468,216.019 213.611,216.413 216.138 C 216.674 217.813,216.746 217.721,216.844 215.582 C 216.909 214.172,217.318 213.018,217.751 213.018 C 218.185 213.018,218.540 212.410,218.540 211.667 C 218.540 210.924,220.027 208.801,221.844 206.950 C 223.661 205.098,224.993 203.462,224.803 203.313 C 224.613 203.164,223.111 204.507,221.466 206.298 M273.900 213.118 C 273.820 214.839,274.239 216.372,274.951 216.963 C 275.793 217.661,276.134 219.510,276.134 223.371 C 276.134 226.462,276.474 228.797,276.923 228.797 C 277.439 228.797,277.778 247.399,277.904 282.643 L 278.095 336.489 278.304 282.885 C 278.441 247.672,278.240 229.009,277.718 228.487 C 277.281 228.050,276.923 225.499,276.923 222.818 C 276.923 219.532,276.552 217.637,275.784 216.999 C 275.157 216.479,274.507 214.749,274.338 213.155 L 274.033 210.256 273.900 213.118 M336.471 274.162 C 336.471 308.876,336.568 322.962,336.686 305.464 C 336.805 287.966,336.805 259.564,336.686 242.348 C 336.568 225.131,336.471 239.448,336.471 274.162 M214.333 219.066 C 214.043 219.356,213.807 222.018,213.807 224.984 C 213.807 228.052,213.467 230.375,213.018 230.375 C 212.498 230.375,212.294 248.459,212.420 283.432 L 212.612 336.489 212.806 284.418 C 212.924 252.715,213.300 231.730,213.767 230.769 C 214.330 229.611,215.379 218.527,214.924 218.539 C 214.888 218.540,214.622 218.777,214.333 219.066 M392.110 378.540 C 392.110 379.321,391.667 380.408,391.124 380.954 C 390.334 381.751,390.412 381.843,391.519 381.422 C 392.719 380.965,393.601 377.120,392.505 377.120 C 392.288 377.120,392.110 377.759,392.110 378.540 M1.578 378.602 C 1.578 379.089,1.908 379.487,2.312 379.487 C 2.716 379.487,3.160 380.258,3.298 381.201 C 3.437 382.143,4.003 383.004,4.556 383.114 C 5.109 383.224,5.198 383.133,4.753 382.913 C 4.309 382.692,3.945 381.875,3.945 381.096 C 3.945 380.317,3.412 379.238,2.761 378.698 C 1.944 378.020,1.578 377.990,1.578 378.602 M11.108 389.571 C 11.073 390.127,11.667 390.774,12.426 391.009 C 13.185 391.244,14.517 391.823,15.385 392.295 C 16.798 393.063,16.850 393.016,15.880 391.843 C 15.284 391.122,14.160 390.533,13.381 390.533 C 12.603 390.533,11.787 390.089,11.568 389.546 C 11.256 388.774,11.156 388.779,11.108 389.571 " stroke="none" fill="#F26A73" fill-rule="evenodd"></path>
  </g>
</svg>
