<svg id="svg" version="1.1" viewBox="0 0 500 662" width="50" height="66" xmlns="http://www.w3.org/2000/svg" xmlns:xlink="http://www.w3.org/1999/xlink" style="display: block;">
  <g id="svgg">
    <path id="path0" d="M0.000 136.000 L 0.000 272.000 3.325 272.000 C 6.366 272.000,7.108 271.539,12.020 266.600 C 21.309 257.261,28.464 250.636,30.357 249.623 C 31.361 249.085,33.852 246.936,35.892 244.847 C 37.931 242.757,41.760 239.269,44.400 237.096 C 47.040 234.923,50.291 232.077,51.626 230.772 C 54.950 227.521,58.377 224.672,61.000 222.982 C 62.210 222.201,63.200 221.031,63.200 220.382 C 63.200 219.732,63.677 219.200,64.261 219.200 C 64.844 219.200,66.133 218.336,67.125 217.280 C 68.117 216.224,70.070 215.197,71.464 214.998 C 72.859 214.799,77.240 213.720,81.200 212.601 C 91.382 209.723,111.969 207.172,131.600 206.356 C 158.977 205.218,181.800 202.924,199.325 199.550 C 204.894 198.477,211.383 197.600,213.746 197.600 C 216.109 197.600,220.913 197.252,224.421 196.827 C 230.230 196.123,250.207 194.666,279.600 192.803 C 285.760 192.412,293.680 191.522,297.200 190.824 C 303.780 189.519,306.003 189.193,327.200 186.422 C 353.507 182.984,357.874 184.358,363.872 197.961 C 365.259 201.109,367.184 217.822,367.193 226.800 C 367.201 234.702,369.143 261.484,370.442 271.600 C 370.894 275.120,371.443 279.800,371.661 282.000 C 371.879 284.200,372.447 288.557,372.922 291.681 C 373.779 297.320,373.764 297.407,370.930 303.380 C 366.389 312.949,365.967 313.080,335.600 314.380 C 325.824 314.798,313.021 315.887,306.800 316.829 C 300.640 317.762,293.440 318.840,290.800 319.225 C 288.160 319.610,282.760 320.489,278.800 321.177 C 274.840 321.866,264.940 322.782,256.800 323.213 C 237.646 324.227,219.848 325.470,210.800 326.425 C 206.840 326.843,201.080 327.381,198.000 327.621 C 194.920 327.860,187.540 328.925,181.600 329.987 C 159.304 333.973,98.893 338.304,85.199 336.898 C 78.370 336.197,69.612 332.478,67.743 329.485 C 67.232 328.668,66.387 328.000,65.865 328.000 C 65.342 328.000,64.439 327.550,63.857 327.000 C 62.669 325.876,57.141 323.200,56.008 323.200 C 55.602 323.200,53.777 321.822,51.954 320.138 C 48.621 317.061,46.555 315.840,40.112 313.140 C 38.194 312.336,35.494 310.590,34.112 309.260 C 32.730 307.931,30.880 306.410,30.000 305.882 C 27.491 304.374,21.469 301.600,20.707 301.600 C 19.926 301.600,18.020 300.132,13.176 295.800 C 11.331 294.150,9.253 292.800,8.558 292.800 C 7.863 292.800,7.072 292.440,6.800 292.000 C 6.528 291.560,4.887 291.200,3.153 291.200 L 0.000 291.200 0.000 410.400 L 0.000 529.600 94.400 529.600 L 188.800 529.600 188.800 526.400 C 188.800 524.640,188.420 523.200,187.956 523.200 C 187.492 523.200,186.142 521.130,184.956 518.600 L 182.800 514.000 182.583 443.438 L 182.366 372.876 184.775 367.777 C 187.607 361.783,188.498 361.234,198.000 359.624 C 211.164 357.395,217.166 358.859,218.505 364.625 C 218.783 365.821,219.053 399.775,219.105 440.077 C 219.204 516.801,219.204 516.820,215.949 518.831 C 215.537 519.086,215.200 519.949,215.200 520.749 C 215.200 521.549,214.660 522.652,214.000 523.200 C 213.340 523.748,212.800 525.412,212.800 526.898 L 212.800 529.600 306.400 529.600 L 400.000 529.600 400.000 312.400 L 400.000 95.200 397.356 95.200 C 394.551 95.200,391.450 97.636,386.861 103.441 C 385.574 105.068,384.203 106.400,383.813 106.400 C 382.696 106.400,376.000 112.241,376.000 113.216 C 376.000 113.698,374.518 115.152,372.707 116.447 C 370.895 117.741,367.395 120.870,364.928 123.400 C 362.461 125.930,360.013 128.000,359.488 128.000 C 358.963 128.000,358.413 128.323,358.267 128.717 C 357.910 129.676,344.039 142.370,332.897 151.933 C 331.851 152.831,329.691 153.772,328.097 154.024 C 326.504 154.275,323.692 155.167,321.849 156.007 C 320.005 156.846,316.585 157.758,314.249 158.034 C 311.912 158.310,304.960 159.242,298.800 160.105 C 292.640 160.968,279.860 162.005,270.400 162.410 C 255.147 163.063,235.585 164.913,231.873 166.053 C 231.144 166.278,227.904 166.782,224.673 167.174 C 221.443 167.567,216.280 168.454,213.200 169.147 C 207.857 170.349,202.566 170.881,177.200 172.766 C 150.166 174.776,136.510 176.187,126.800 177.973 C 100.530 182.806,67.947 185.639,47.600 184.859 C 45.778 184.789,39.845 179.692,38.478 177.022 C 36.180 172.535,33.730 153.289,32.799 132.400 C 32.101 116.753,30.767 103.073,28.875 92.165 C 28.440 89.654,27.685 84.720,27.198 81.200 C 26.710 77.680,26.173 73.873,26.004 72.740 C 25.673 70.524,27.140 68.620,32.430 64.400 C 34.085 63.080,36.071 61.339,36.842 60.532 C 37.745 59.587,40.198 58.804,43.723 58.336 C 62.380 55.854,77.451 54.400,84.514 54.400 C 96.824 54.400,125.231 51.007,141.600 47.581 C 144.900 46.891,151.984 45.998,157.343 45.597 C 162.702 45.197,170.041 44.133,173.653 43.234 C 177.265 42.335,180.312 41.600,180.424 41.600 C 181.382 41.600,182.028 37.034,182.461 27.200 C 182.800 19.497,183.450 14.122,184.397 11.200 C 185.181 8.780,185.989 5.270,186.192 3.400 L 186.561 0.000 93.281 0.000 L 0.000 0.000 0.000 136.000 M215.208 3.800 C 215.213 6.156,215.973 9.226,217.208 11.879 C 218.728 15.144,219.200 17.474,219.200 21.705 C 219.200 35.147,224.800 38.707,242.324 36.405 C 261.066 33.943,273.166 32.819,281.600 32.757 C 286.220 32.723,294.140 32.263,299.200 31.736 C 309.264 30.688,319.665 31.658,324.400 34.086 C 329.408 36.654,330.836 37.583,332.024 39.040 C 332.697 39.867,336.028 41.803,339.425 43.344 C 342.822 44.884,346.772 47.194,348.201 48.476 C 351.918 51.809,354.252 53.174,358.824 54.683 C 361.105 55.436,364.467 57.482,366.587 59.406 C 368.659 61.286,372.879 63.870,376.047 65.200 C 379.193 66.520,382.782 68.590,384.022 69.800 C 385.262 71.010,386.555 72.000,386.895 72.000 C 387.234 72.000,388.505 72.951,389.719 74.114 C 391.320 75.648,393.032 76.334,395.963 76.616 L 400.000 77.004 400.000 38.502 L 400.000 0.000 307.600 0.000 L 215.200 0.000 215.208 3.800 " stroke="none" fill="none" fill-rule="evenodd"></path>
    <path id="path1" d="M186.192 3.400 C 185.989 5.270,185.181 8.780,184.397 11.200 C 183.450 14.122,182.800 19.497,182.461 27.200 C 182.028 37.034,181.382 41.600,180.424 41.600 C 180.312 41.600,177.265 42.335,173.653 43.234 C 170.041 44.133,162.702 45.197,157.343 45.597 C 151.984 45.998,144.900 46.891,141.600 47.581 C 125.231 51.007,96.824 54.400,84.514 54.400 C 77.451 54.400,62.380 55.854,43.723 58.336 C 40.198 58.804,37.745 59.587,36.842 60.532 C 36.071 61.339,34.085 63.080,32.430 64.400 C 27.140 68.620,25.673 70.524,26.004 72.740 C 26.173 73.873,26.710 77.680,27.198 81.200 C 27.685 84.720,28.440 89.654,28.875 92.165 C 30.767 103.073,32.101 116.753,32.799 132.400 C 33.730 153.289,36.180 172.535,38.478 177.022 C 39.845 179.692,45.778 184.789,47.600 184.859 C 67.947 185.639,100.530 182.806,126.800 177.973 C 136.510 176.187,150.166 174.776,177.200 172.766 C 202.566 170.881,207.857 170.349,213.200 169.147 C 216.280 168.454,221.443 167.567,224.673 167.174 C 227.904 166.782,231.144 166.278,231.873 166.053 C 235.585 164.913,255.147 163.063,270.400 162.410 C 279.860 162.005,292.640 160.968,298.800 160.105 C 304.960 159.242,311.912 158.310,314.249 158.034 C 316.585 157.758,320.005 156.846,321.849 156.007 C 323.692 155.167,326.504 154.275,328.097 154.024 C 329.691 153.772,331.851 152.831,332.897 151.933 C 344.039 142.370,357.910 129.676,358.267 128.717 C 358.413 128.323,358.963 128.000,359.488 128.000 C 360.013 128.000,362.461 125.930,364.928 123.400 C 367.395 120.870,370.895 117.741,372.707 116.447 C 374.518 115.152,376.000 113.698,376.000 113.216 C 376.000 112.241,382.696 106.400,383.813 106.400 C 384.203 106.400,385.574 105.068,386.861 103.441 C 391.450 97.636,394.551 95.200,397.356 95.200 L 400.000 95.200 400.000 86.102 L 400.000 77.004 395.963 76.616 C 393.032 76.334,391.320 75.648,389.719 74.114 C 388.505 72.951,387.234 72.000,386.895 72.000 C 386.555 72.000,385.262 71.010,384.022 69.800 C 382.782 68.590,379.193 66.520,376.047 65.200 C 372.879 63.870,368.659 61.286,366.587 59.406 C 364.467 57.482,361.105 55.436,358.824 54.683 C 354.252 53.174,351.918 51.809,348.201 48.476 C 346.772 47.194,342.822 44.884,339.425 43.344 C 336.028 41.803,332.697 39.867,332.024 39.040 C 330.836 37.583,329.408 36.654,324.400 34.086 C 319.665 31.658,309.264 30.688,299.200 31.736 C 294.140 32.263,286.220 32.723,281.600 32.757 C 273.166 32.819,261.066 33.943,242.324 36.405 C 224.800 38.707,219.200 35.147,219.200 21.705 C 219.200 17.474,218.728 15.144,217.208 11.879 C 215.973 9.226,215.213 6.156,215.208 3.800 L 215.200 0.000 200.881 -0.000 L 186.561 -0.000 186.192 3.400 M332.400 185.664 C 329.760 186.032,323.100 186.921,317.600 187.639 C 312.100 188.358,303.820 189.655,299.200 190.522 C 294.580 191.389,285.760 192.417,279.600 192.806 C 250.720 194.629,230.247 196.121,224.421 196.827 C 220.913 197.252,216.109 197.600,213.746 197.600 C 211.383 197.600,204.894 198.477,199.325 199.550 C 181.800 202.924,158.977 205.218,131.600 206.356 C 111.969 207.172,91.382 209.723,81.200 212.601 C 77.240 213.720,72.859 214.799,71.464 214.998 C 70.070 215.197,68.117 216.224,67.125 217.280 C 66.133 218.336,64.844 219.200,64.261 219.200 C 63.677 219.200,63.200 219.732,63.200 220.382 C 63.200 221.031,62.210 222.201,61.000 222.982 C 58.377 224.672,54.950 227.521,51.626 230.772 C 50.291 232.077,47.040 234.923,44.400 237.096 C 41.760 239.269,37.931 242.757,35.892 244.847 C 33.852 246.936,31.361 249.085,30.357 249.623 C 28.464 250.636,21.309 257.261,12.020 266.600 C 7.108 271.539,6.366 272.000,3.325 272.000 L 0.000 272.000 0.000 281.600 L 0.000 291.200 3.153 291.200 C 4.887 291.200,6.528 291.560,6.800 292.000 C 7.072 292.440,7.863 292.800,8.558 292.800 C 9.253 292.800,11.331 294.150,13.176 295.800 C 18.020 300.132,19.926 301.600,20.707 301.600 C 21.469 301.600,27.491 304.374,30.000 305.882 C 30.880 306.410,32.730 307.931,34.112 309.260 C 35.494 310.590,38.194 312.336,40.112 313.140 C 46.555 315.840,48.621 317.061,51.954 320.138 C 53.777 321.822,55.602 323.200,56.008 323.200 C 57.141 323.200,62.669 325.876,63.857 327.000 C 64.439 327.550,65.342 328.000,65.865 328.000 C 66.387 328.000,67.232 328.668,67.743 329.485 C 69.612 332.478,78.370 336.197,85.199 336.898 C 98.893 338.304,159.304 333.973,181.600 329.987 C 187.540 328.925,194.920 327.860,198.000 327.621 C 201.080 327.381,206.840 326.843,210.800 326.425 C 219.848 325.470,237.646 324.227,256.800 323.213 C 264.940 322.782,274.840 321.866,278.800 321.177 C 282.760 320.489,288.160 319.610,290.800 319.225 C 293.440 318.840,300.640 317.762,306.800 316.829 C 313.021 315.887,325.824 314.798,335.600 314.380 C 365.967 313.080,366.389 312.949,370.930 303.380 C 373.764 297.407,373.779 297.320,372.922 291.681 C 372.447 288.557,371.879 284.200,371.661 282.000 C 371.443 279.800,370.894 275.120,370.442 271.600 C 369.143 261.484,367.201 234.702,367.193 226.800 C 367.184 217.822,365.259 201.109,363.872 197.961 C 358.295 185.314,352.146 182.911,332.400 185.664 M197.200 359.699 C 188.571 361.216,187.567 361.869,184.775 367.777 L 182.366 372.876 182.583 443.438 L 182.800 514.000 184.956 518.600 C 186.142 521.130,187.492 523.200,187.956 523.200 C 188.420 523.200,188.800 524.640,188.800 526.400 L 188.800 529.600 200.800 529.600 L 212.800 529.600 212.800 526.898 C 212.800 525.412,213.340 523.748,214.000 523.200 C 214.660 522.652,215.200 521.549,215.200 520.749 C 215.200 519.949,215.537 519.086,215.949 518.831 C 219.204 516.820,219.204 516.801,219.105 440.077 C 219.053 399.775,218.783 365.821,218.505 364.625 C 217.161 358.840,210.651 357.335,197.200 359.699 " stroke="none" fill="#33b2b8" fill-rule="evenodd"></path></g></svg>
