<svg id="svg" version="1.1" viewBox="0 0 500 823" width="50" height="82" xmlns="http://www.w3.org/2000/svg" xmlns:xlink="http://www.w3.org/1999/xlink" style="display: block;">
  <g id="svgg">
    <path id="path0" d="M0.000 199.200 L 0.000 398.400 27.253 398.400 C 57.404 398.400,55.499 398.714,62.560 392.587 C 67.405 388.382,67.620 387.915,71.597 372.877 C 72.342 370.060,74.680 364.381,76.792 360.258 C 78.905 356.134,81.249 350.339,82.002 347.380 C 84.299 338.355,87.225 330.048,88.436 329.118 C 90.461 327.562,93.564 319.358,94.792 312.316 C 95.798 306.547,96.675 304.338,100.393 298.200 C 102.817 294.198,104.806 289.996,104.814 288.862 C 104.847 283.821,109.522 269.864,112.075 267.183 C 113.410 265.780,116.523 257.408,118.037 251.146 C 119.608 244.644,122.160 238.193,125.072 233.357 C 126.694 230.663,128.454 225.755,129.877 219.953 C 131.112 214.919,132.608 209.675,133.201 208.299 C 134.109 206.194,134.105 205.308,133.175 202.699 C 132.567 200.995,132.054 198.413,132.035 196.962 C 131.995 193.984,127.407 186.195,124.903 184.855 C 124.033 184.390,122.347 181.937,121.156 179.404 C 119.023 174.869,117.934 171.460,114.051 157.165 C 112.970 153.186,111.751 149.046,111.342 147.965 C 109.044 141.897,109.650 125.556,112.367 120.346 C 113.040 119.056,113.592 117.362,113.595 116.581 C 113.618 109.850,121.733 90.002,126.316 85.465 C 127.502 84.291,129.474 81.350,130.699 78.930 C 132.194 75.974,134.021 73.810,136.263 72.336 C 138.098 71.129,141.509 68.310,143.842 66.071 C 148.650 61.457,153.286 58.410,155.506 58.404 C 158.926 58.395,169.859 49.613,173.396 44.033 C 175.137 41.287,175.192 40.571,175.196 20.600 L 175.200 0.000 87.600 0.000 L 0.000 0.000 0.000 199.200 M225.604 20.600 C 225.608 40.571,225.663 41.287,227.404 44.033 C 230.852 49.473,241.869 58.400,245.134 58.400 C 247.531 58.400,251.325 60.859,256.719 65.906 C 259.624 68.624,263.350 71.677,265.000 72.689 C 266.650 73.702,268.000 74.854,268.000 75.250 C 268.000 76.275,273.632 84.946,275.236 86.390 C 279.135 89.900,284.795 104.095,286.723 115.200 C 286.990 116.740,287.773 119.080,288.462 120.400 C 291.235 125.711,291.471 144.609,288.826 149.552 C 288.381 150.382,287.295 154.063,286.412 157.731 C 282.528 173.865,279.483 181.324,275.200 185.200 C 272.503 187.641,268.908 194.611,268.374 198.435 C 268.100 200.396,267.517 202.745,267.079 203.656 C 266.487 204.889,266.785 206.934,268.245 211.656 C 269.324 215.145,270.858 220.340,271.654 223.200 C 272.450 226.060,274.772 231.650,276.813 235.621 C 278.855 239.593,281.160 245.353,281.935 248.421 C 282.710 251.490,284.032 256.017,284.872 258.482 C 285.712 260.947,286.400 263.398,286.400 263.929 C 286.400 264.460,287.482 266.240,288.804 267.885 C 291.695 271.483,294.142 278.134,295.123 285.062 C 295.877 290.381,297.505 294.209,301.589 300.260 C 302.923 302.236,304.372 305.742,304.810 308.053 C 306.513 317.033,310.570 328.800,311.964 328.800 C 312.793 328.800,316.384 338.450,318.364 346.000 C 320.340 353.534,322.452 358.756,325.595 363.880 C 326.849 365.926,328.644 370.660,329.583 374.400 C 330.523 378.140,331.666 382.631,332.125 384.379 C 332.700 386.575,334.329 388.876,337.389 391.815 C 344.575 398.720,342.834 398.400,373.160 398.400 L 400.000 398.400 400.000 199.200 L 400.000 0.000 312.800 0.000 L 225.600 0.000 225.604 20.600 M185.200 95.629 C 182.281 96.421,180.335 97.650,178.000 100.178 C 176.240 102.084,173.453 104.318,171.807 105.144 C 168.632 106.736,166.412 109.874,163.847 116.397 C 162.982 118.599,161.751 120.980,161.113 121.689 C 157.265 125.964,157.374 144.438,161.281 150.195 C 162.282 151.671,163.536 154.211,164.067 155.839 C 165.594 160.526,169.510 165.644,172.538 166.909 C 174.051 167.541,175.973 169.218,176.809 170.636 C 179.930 175.925,181.739 176.382,199.600 176.392 C 217.647 176.401,219.201 176.056,223.128 171.169 C 224.501 169.461,226.831 167.491,228.306 166.791 C 231.497 165.277,235.152 160.328,237.164 154.800 C 237.964 152.600,239.110 150.232,239.709 149.537 C 240.309 148.842,240.800 147.634,240.800 146.852 C 240.800 146.071,241.357 143.280,242.038 140.652 C 243.156 136.338,243.156 135.458,242.038 131.613 C 241.357 129.271,240.800 126.573,240.800 125.619 C 240.800 124.665,239.937 122.381,238.883 120.542 C 237.829 118.704,236.709 116.300,236.394 115.200 C 235.302 111.384,231.715 106.611,228.865 105.183 C 227.289 104.393,224.560 102.175,222.800 100.253 C 217.657 94.638,197.833 92.200,185.200 95.629 M192.271 228.200 C 190.827 229.737,189.084 233.090,188.009 236.400 C 185.090 245.389,184.721 246.243,182.772 248.511 C 180.684 250.941,177.600 258.440,177.600 261.087 C 177.600 264.841,174.240 274.666,171.592 278.654 C 169.106 282.398,166.033 291.141,164.369 299.200 C 164.052 300.740,161.712 306.140,159.170 311.200 C 156.629 316.260,154.302 321.660,154.001 323.200 C 152.541 330.657,149.518 339.298,146.981 343.263 C 144.102 347.764,140.800 357.294,140.800 361.104 C 140.800 363.530,136.876 372.202,134.420 375.204 C 132.636 377.385,131.212 384.366,131.205 390.969 C 131.196 398.539,131.192 398.538,155.200 398.247 C 185.181 397.884,184.861 398.168,186.006 370.905 C 186.555 357.836,186.648 357.549,191.554 353.800 C 194.638 351.444,195.474 351.201,200.478 351.208 C 211.682 351.224,215.066 357.084,215.166 376.642 C 215.269 396.865,216.716 397.895,245.495 398.251 C 271.485 398.572,271.257 398.720,268.747 383.200 C 268.285 380.340,267.220 376.920,266.382 375.600 C 262.386 369.309,259.935 363.615,259.246 359.023 C 258.175 351.884,257.198 349.077,253.959 343.828 C 251.405 339.691,248.370 330.980,246.772 323.200 C 246.456 321.660,245.381 318.780,244.384 316.800 C 238.258 304.639,236.937 301.713,236.436 299.200 C 234.986 291.925,231.630 282.412,229.210 278.715 C 226.523 274.609,223.894 267.078,222.401 259.207 C 221.605 255.010,218.599 248.000,217.595 248.000 C 216.848 248.000,214.013 241.220,212.410 235.600 C 210.210 227.888,207.462 225.600,200.400 225.600 C 195.019 225.600,194.583 225.740,192.271 228.200 M0.000 541.200 L 0.000 658.400 13.600 658.400 L 27.200 658.400 27.199 656.200 C 27.199 654.990,26.639 651.316,25.954 648.034 C 24.597 641.528,24.704 640.577,27.690 632.645 C 29.935 626.681,31.248 626.254,32.619 631.042 C 34.354 637.102,34.526 640.585,33.294 644.734 C 32.624 646.991,31.832 650.989,31.534 653.618 L 30.993 658.400 200.381 658.400 L 369.768 658.400 369.378 655.400 C 369.045 652.843,367.385 643.235,367.011 641.699 C 366.465 639.458,368.341 630.339,369.578 629.220 C 372.934 626.183,376.245 641.082,374.087 649.507 C 373.379 652.269,372.800 655.400,372.800 656.465 L 372.800 658.400 386.400 658.400 L 400.000 658.400 400.000 541.200 L 400.000 424.000 379.947 424.000 C 359.435 424.000,358.989 424.059,353.933 427.412 L 351.467 429.048 352.997 436.724 C 354.136 442.435,355.649 446.640,358.905 453.150 C 362.584 460.503,365.697 469.593,367.815 479.167 C 368.054 480.248,369.645 483.291,371.350 485.929 C 374.554 490.886,376.325 495.833,377.563 503.284 C 378.432 508.513,380.064 512.526,383.776 518.564 L 386.582 523.127 385.361 529.364 C 384.689 532.794,383.150 537.940,381.942 540.800 C 379.428 546.750,377.669 554.115,377.628 558.859 C 377.556 567.268,374.576 579.598,369.717 591.600 C 368.827 593.800,367.292 600.165,366.308 605.745 C 361.996 630.180,357.675 628.060,350.427 597.954 C 350.103 596.608,348.554 593.641,346.986 591.361 C 343.902 586.877,341.933 581.693,341.151 576.000 C 340.349 570.157,339.206 567.084,335.941 561.989 C 333.627 558.378,332.230 554.686,330.338 547.189 C 328.952 541.695,326.908 535.580,325.795 533.600 C 321.203 525.430,319.145 520.351,318.014 514.400 C 317.199 510.112,313.550 500.735,311.456 497.547 C 309.082 493.933,306.810 487.471,305.568 480.800 C 304.288 473.925,303.422 471.703,300.191 467.005 C 297.254 462.735,295.200 457.688,295.200 454.741 C 295.200 451.460,291.214 440.139,289.227 437.779 C 288.170 436.521,286.738 434.077,286.045 432.346 C 285.193 430.217,283.530 428.342,280.901 426.548 L 277.016 423.897 251.508 424.162 C 228.155 424.404,225.696 424.561,222.400 426.013 C 215.272 429.155,215.832 427.826,215.109 443.299 C 213.931 468.514,212.557 471.205,200.867 471.195 C 188.382 471.184,186.703 468.195,185.642 444.086 C 184.921 427.702,185.491 429.124,178.400 426.050 C 175.135 424.635,172.428 424.462,149.292 424.193 L 123.784 423.897 119.845 426.549 C 116.992 428.468,115.391 430.311,114.042 433.228 C 113.018 435.443,111.602 437.735,110.896 438.320 C 109.483 439.493,106.915 447.464,105.103 456.303 C 104.341 460.018,103.002 463.391,101.253 466.000 C 97.034 472.292,96.047 474.722,94.795 481.898 C 93.553 489.024,91.492 494.620,88.628 498.641 C 86.852 501.135,83.842 509.298,82.817 514.400 C 81.781 519.553,79.939 524.265,76.422 530.758 C 74.027 535.179,72.135 540.337,70.391 547.200 C 68.560 554.403,67.065 558.405,65.044 561.509 C 61.736 566.591,59.208 573.497,59.181 577.525 C 59.158 581.078,56.234 588.351,53.265 592.244 C 52.042 593.848,50.742 596.339,50.378 597.780 C 45.015 618.984,42.536 624.805,39.668 622.928 C 37.897 621.769,32.928 609.649,32.237 604.800 C 32.017 603.260,30.820 599.290,29.577 595.978 C 26.517 587.823,25.186 581.639,23.642 568.400 C 21.639 551.216,20.972 547.790,18.411 541.495 C 17.106 538.289,15.629 532.861,15.127 529.433 L 14.216 523.201 17.427 517.800 C 20.908 511.945,21.381 510.618,24.053 499.200 C 25.252 494.076,26.809 489.989,28.834 486.653 C 32.040 481.371,33.457 477.623,35.941 467.862 C 36.800 464.486,38.189 460.346,39.027 458.662 C 39.866 456.978,41.831 453.080,43.394 450.000 C 45.147 446.547,46.830 441.458,47.785 436.724 L 49.333 429.048 46.867 427.412 C 41.805 424.055,41.383 424.000,20.453 424.000 L 0.000 424.000 0.000 541.200 " stroke="none" fill="none" fill-rule="evenodd"></path>
    <path id="path1" d="M175.196 20.600 C 175.192 40.571,175.137 41.287,173.396 44.033 C 169.859 49.613,158.926 58.395,155.506 58.404 C 153.286 58.410,148.650 61.457,143.842 66.071 C 141.509 68.310,138.098 71.129,136.263 72.336 C 134.021 73.810,132.194 75.974,130.699 78.930 C 129.474 81.350,127.502 84.291,126.316 85.465 C 121.733 90.002,113.618 109.850,113.595 116.581 C 113.592 117.362,113.040 119.056,112.367 120.346 C 109.650 125.556,109.044 141.897,111.342 147.965 C 111.751 149.046,112.970 153.186,114.051 157.165 C 117.934 171.460,119.023 174.869,121.156 179.404 C 122.347 181.937,124.033 184.390,124.903 184.855 C 127.407 186.195,131.995 193.984,132.035 196.962 C 132.054 198.413,132.567 200.995,133.175 202.699 C 134.105 205.308,134.109 206.194,133.201 208.299 C 132.608 209.675,131.112 214.919,129.877 219.953 C 128.454 225.755,126.694 230.663,125.072 233.357 C 122.160 238.193,119.608 244.644,118.037 251.146 C 116.523 257.408,113.410 265.780,112.075 267.183 C 109.522 269.864,104.847 283.821,104.814 288.862 C 104.806 289.996,102.817 294.198,100.393 298.200 C 96.675 304.338,95.798 306.547,94.792 312.316 C 93.564 319.358,90.461 327.562,88.436 329.118 C 87.225 330.048,84.299 338.355,82.002 347.380 C 81.249 350.339,78.905 356.134,76.792 360.258 C 74.680 364.381,72.342 370.060,71.597 372.877 C 67.620 387.915,67.405 388.382,62.560 392.587 C 55.499 398.714,57.404 398.400,27.253 398.400 L 0.000 398.400 0.000 411.200 L 0.000 424.000 20.453 424.000 C 41.383 424.000,41.805 424.055,46.867 427.412 L 49.333 429.048 47.785 436.724 C 46.830 441.458,45.147 446.547,43.394 450.000 C 41.831 453.080,39.866 456.978,39.027 458.662 C 38.189 460.346,36.800 464.486,35.941 467.862 C 33.457 477.623,32.040 481.371,28.834 486.653 C 26.809 489.989,25.252 494.076,24.053 499.200 C 21.381 510.618,20.908 511.945,17.427 517.800 L 14.216 523.201 15.127 529.433 C 15.629 532.861,17.106 538.289,18.411 541.495 C 20.972 547.790,21.639 551.216,23.642 568.400 C 25.186 581.639,26.517 587.823,29.577 595.978 C 30.820 599.290,32.017 603.260,32.237 604.800 C 32.928 609.649,37.897 621.769,39.668 622.928 C 42.536 624.805,45.015 618.984,50.378 597.780 C 50.742 596.339,52.042 593.848,53.265 592.244 C 56.234 588.351,59.158 581.078,59.181 577.525 C 59.208 573.497,61.736 566.591,65.044 561.509 C 67.065 558.405,68.560 554.403,70.391 547.200 C 72.135 540.337,74.027 535.179,76.422 530.758 C 79.939 524.265,81.781 519.553,82.817 514.400 C 83.842 509.298,86.852 501.135,88.628 498.641 C 91.492 494.620,93.553 489.024,94.795 481.898 C 96.047 474.722,97.034 472.292,101.253 466.000 C 103.002 463.391,104.341 460.018,105.103 456.303 C 106.915 447.464,109.483 439.493,110.896 438.320 C 111.602 437.735,113.018 435.443,114.042 433.228 C 115.391 430.311,116.992 428.468,119.845 426.549 L 123.784 423.897 149.292 424.193 C 172.428 424.462,175.135 424.635,178.400 426.050 C 185.491 429.124,184.921 427.702,185.642 444.086 C 186.703 468.195,188.382 471.184,200.867 471.195 C 212.557 471.205,213.931 468.514,215.109 443.299 C 215.832 427.826,215.272 429.155,222.400 426.013 C 225.696 424.561,228.155 424.404,251.508 424.162 L 277.016 423.897 280.901 426.548 C 283.530 428.342,285.193 430.217,286.045 432.346 C 286.738 434.077,288.170 436.521,289.227 437.779 C 291.214 440.139,295.200 451.460,295.200 454.741 C 295.200 457.688,297.254 462.735,300.191 467.005 C 303.422 471.703,304.288 473.925,305.568 480.800 C 306.810 487.471,309.082 493.933,311.456 497.547 C 313.550 500.735,317.199 510.112,318.014 514.400 C 319.145 520.351,321.203 525.430,325.795 533.600 C 326.908 535.580,328.952 541.695,330.338 547.189 C 332.230 554.686,333.627 558.378,335.941 561.989 C 339.206 567.084,340.349 570.157,341.151 576.000 C 341.933 581.693,343.902 586.877,346.986 591.361 C 348.554 593.641,350.103 596.608,350.427 597.954 C 357.675 628.060,361.996 630.180,366.308 605.745 C 367.292 600.165,368.827 593.800,369.717 591.600 C 374.576 579.598,377.556 567.268,377.628 558.859 C 377.669 554.115,379.428 546.750,381.942 540.800 C 383.150 537.940,384.689 532.794,385.361 529.364 L 386.582 523.127 383.776 518.564 C 380.064 512.526,378.432 508.513,377.563 503.284 C 376.325 495.833,374.554 490.886,371.350 485.929 C 369.645 483.291,368.054 480.248,367.815 479.167 C 365.697 469.593,362.584 460.503,358.905 453.150 C 355.649 446.640,354.136 442.435,352.997 436.724 L 351.467 429.048 353.933 427.412 C 358.989 424.059,359.435 424.000,379.947 424.000 L 400.000 424.000 400.000 411.200 L 400.000 398.400 373.160 398.400 C 342.834 398.400,344.575 398.720,337.389 391.815 C 334.329 388.876,332.700 386.575,332.125 384.379 C 331.666 382.631,330.523 378.140,329.583 374.400 C 328.644 370.660,326.849 365.926,325.595 363.880 C 322.452 358.756,320.340 353.534,318.364 346.000 C 316.384 338.450,312.793 328.800,311.964 328.800 C 310.570 328.800,306.513 317.033,304.810 308.053 C 304.372 305.742,302.923 302.236,301.589 300.260 C 297.505 294.209,295.877 290.381,295.123 285.062 C 294.142 278.134,291.695 271.483,288.804 267.885 C 287.482 266.240,286.400 264.460,286.400 263.929 C 286.400 263.398,285.712 260.947,284.872 258.482 C 284.032 256.017,282.710 251.490,281.935 248.421 C 281.160 245.353,278.855 239.593,276.813 235.621 C 274.772 231.650,272.450 226.060,271.654 223.200 C 270.858 220.340,269.324 215.145,268.245 211.656 C 266.785 206.934,266.487 204.889,267.079 203.656 C 267.517 202.745,268.100 200.396,268.374 198.435 C 268.908 194.611,272.503 187.641,275.200 185.200 C 279.483 181.324,282.528 173.865,286.412 157.731 C 287.295 154.063,288.381 150.382,288.826 149.552 C 291.471 144.609,291.235 125.711,288.462 120.400 C 287.773 119.080,286.990 116.740,286.723 115.200 C 284.795 104.095,279.135 89.900,275.236 86.390 C 273.632 84.946,268.000 76.275,268.000 75.250 C 268.000 74.854,266.650 73.702,265.000 72.689 C 263.350 71.677,259.624 68.624,256.719 65.906 C 251.325 60.859,247.531 58.400,245.134 58.400 C 241.869 58.400,230.852 49.473,227.404 44.033 C 225.663 41.287,225.608 40.571,225.604 20.600 L 225.600 0.000 200.400 0.000 L 175.200 0.000 175.196 20.600 M215.200 95.589 C 218.592 96.491,220.333 97.560,222.800 100.253 C 224.560 102.175,227.289 104.393,228.865 105.183 C 231.715 106.611,235.302 111.384,236.394 115.200 C 236.709 116.300,237.829 118.704,238.883 120.542 C 239.937 122.381,240.800 124.665,240.800 125.619 C 240.800 126.573,241.357 129.271,242.038 131.613 C 243.156 135.458,243.156 136.338,242.038 140.652 C 241.357 143.280,240.800 146.071,240.800 146.852 C 240.800 147.634,240.309 148.842,239.709 149.537 C 239.110 150.232,237.964 152.600,237.164 154.800 C 235.152 160.328,231.497 165.277,228.306 166.791 C 226.831 167.491,224.501 169.461,223.128 171.169 C 219.201 176.056,217.647 176.401,199.600 176.392 C 181.739 176.382,179.930 175.925,176.809 170.636 C 175.973 169.218,174.051 167.541,172.538 166.909 C 169.510 165.644,165.594 160.526,164.067 155.839 C 163.536 154.211,162.282 151.671,161.281 150.195 C 157.374 144.438,157.265 125.964,161.113 121.689 C 161.751 120.980,162.982 118.599,163.847 116.397 C 166.412 109.874,168.632 106.736,171.807 105.144 C 173.453 104.318,176.240 102.084,178.000 100.178 C 183.116 94.640,202.595 92.237,215.200 95.589 M208.563 228.200 C 210.083 229.795,211.570 232.656,212.410 235.600 C 214.013 241.220,216.848 248.000,217.595 248.000 C 218.599 248.000,221.605 255.010,222.401 259.207 C 223.894 267.078,226.523 274.609,229.210 278.715 C 231.630 282.412,234.986 291.925,236.436 299.200 C 236.937 301.713,238.258 304.639,244.384 316.800 C 245.381 318.780,246.456 321.660,246.772 323.200 C 248.370 330.980,251.405 339.691,253.959 343.828 C 257.198 349.077,258.175 351.884,259.246 359.023 C 259.935 363.615,262.386 369.309,266.382 375.600 C 267.220 376.920,268.285 380.340,268.747 383.200 C 271.257 398.720,271.485 398.572,245.495 398.251 C 216.716 397.895,215.269 396.865,215.166 376.642 C 215.066 357.084,211.682 351.224,200.478 351.208 C 195.474 351.201,194.638 351.444,191.554 353.800 C 186.648 357.549,186.555 357.836,186.006 370.905 C 184.861 398.168,185.181 397.884,155.200 398.247 C 131.192 398.538,131.196 398.539,131.205 390.969 C 131.212 384.366,132.636 377.385,134.420 375.204 C 136.876 372.202,140.800 363.530,140.800 361.104 C 140.800 357.294,144.102 347.764,146.981 343.263 C 149.518 339.298,152.541 330.657,154.001 323.200 C 154.302 321.660,156.629 316.260,159.170 311.200 C 161.712 306.140,164.052 300.740,164.369 299.200 C 166.033 291.141,169.106 282.398,171.592 278.654 C 174.240 274.666,177.600 264.841,177.600 261.087 C 177.600 258.440,180.684 250.941,182.772 248.511 C 184.721 246.243,185.090 245.389,188.009 236.400 C 190.821 227.741,193.277 225.600,200.400 225.600 C 205.774 225.600,206.222 225.743,208.563 228.200 M27.690 632.645 C 24.704 640.577,24.597 641.528,25.954 648.034 C 26.639 651.316,27.199 654.990,27.199 656.200 C 27.201 661.243,30.922 659.027,31.534 653.618 C 31.832 650.989,32.624 646.991,33.294 644.734 C 34.526 640.585,34.354 637.102,32.619 631.042 C 31.248 626.254,29.935 626.681,27.690 632.645 M369.459 629.317 C 368.358 630.537,366.521 639.806,367.005 641.699 C 367.356 643.070,369.036 652.774,369.378 655.400 C 369.664 657.604,370.148 658.400,371.200 658.400 C 372.250 658.400,372.739 657.599,373.035 655.400 C 373.256 653.750,373.908 649.966,374.482 646.992 C 376.022 639.028,372.351 626.114,369.459 629.317 " stroke="none" fill="#33b2b8" fill-rule="evenodd"></path>
  </g>
</svg>
