<svg id="svg" version="1.1" viewBox="0 0 520 500" width="52" height="50" xmlns="http://www.w3.org/2000/svg" xmlns:xlink="http://www.w3.org/1999/xlink" style="display: block;">
  <g id="svgg">
    <path id="path0" d="M0.000 83.846 L 0.000 167.692 2.493 167.692 C 4.117 167.692,6.447 166.686,9.175 164.808 L 13.363 161.923 37.643 161.658 C 67.856 161.329,69.231 160.842,69.231 150.462 C 69.231 148.727,69.762 144.884,70.411 141.923 C 71.060 138.961,71.807 135.327,72.071 133.846 C 72.773 129.904,75.191 124.599,77.201 122.590 C 78.165 121.625,79.743 119.303,80.706 117.431 C 81.669 115.558,83.262 113.595,84.246 113.069 C 85.231 112.542,87.402 110.684,89.073 108.940 C 91.290 106.625,93.745 105.159,98.170 103.508 C 101.503 102.265,105.079 100.707,106.115 100.047 C 110.615 97.179,114.698 97.024,187.692 96.948 C 267.029 96.866,271.948 96.616,278.462 92.331 C 279.519 91.635,282.981 90.098,286.154 88.916 C 291.360 86.975,293.394 85.497,296.830 81.154 C 297.165 80.731,298.498 79.518,299.792 78.459 C 304.879 74.298,305.525 70.107,305.961 38.470 C 306.347 10.497,306.354 10.392,308.174 7.715 C 309.178 6.237,310.000 3.896,310.000 2.514 L 310.000 0.000 155.000 0.000 L 0.000 0.000 0.000 83.846 M326.393 3.269 C 326.610 5.067,327.202 8.442,327.708 10.769 C 330.575 23.949,327.811 76.032,324.018 80.284 C 323.214 81.186,322.091 83.135,321.521 84.615 C 318.946 91.309,310.314 100.623,303.175 104.411 C 300.460 105.851,296.991 108.001,295.466 109.188 C 293.005 111.103,290.037 112.071,281.923 113.604 C 280.654 113.843,279.269 114.286,278.846 114.586 C 271.983 119.465,262.689 119.999,184.575 120.004 C 147.388 120.007,116.104 120.317,114.615 120.699 C 113.135 121.079,110.982 121.600,109.831 121.857 C 108.680 122.115,106.287 123.706,104.513 125.393 C 102.739 127.081,100.952 128.462,100.541 128.462 C 99.479 128.462,96.156 132.483,96.155 133.769 C 96.154 134.362,95.236 136.785,94.114 139.154 C 91.065 145.590,90.897 146.136,90.350 151.363 C 89.788 156.737,91.098 160.000,93.818 160.000 C 94.630 160.000,95.508 160.346,95.769 160.769 C 96.083 161.277,144.373 161.561,237.930 161.603 C 393.225 161.675,386.304 161.495,392.491 165.602 C 394.861 167.175,397.519 168.462,398.400 168.462 L 400.000 168.462 400.000 84.231 L 400.000 0.000 362.999 -0.000 L 325.999 -0.000 326.393 3.269 M31.154 193.217 C 29.462 194.102,27.823 195.212,27.512 195.683 C 26.693 196.922,26.788 348.005,27.608 350.163 C 27.985 351.154,29.416 353.167,30.789 354.636 L 33.284 357.308 199.595 357.505 C 357.305 357.692,365.984 357.633,367.413 356.351 C 368.241 355.608,369.682 353.908,370.613 352.574 L 372.308 350.147 372.308 272.798 L 372.308 195.449 368.971 193.494 L 365.634 191.538 199.932 191.572 L 34.231 191.606 31.154 193.217 M82.078 215.089 C 88.905 222.192,89.091 229.146,82.661 236.791 C 77.455 242.980,60.903 242.325,57.779 235.806 C 48.748 216.966,68.058 200.503,82.078 215.089 M122.106 211.613 C 131.035 216.378,131.767 236.192,123.148 239.795 C 119.373 241.374,108.278 241.188,105.707 239.504 C 97.962 234.429,95.268 223.008,100.593 217.824 C 102.189 216.271,104.216 213.991,105.099 212.759 C 107.808 208.974,116.115 208.414,122.106 211.613 M166.154 212.268 C 174.122 221.146,175.727 225.814,172.472 230.650 C 171.717 231.773,170.594 233.731,169.977 235.000 C 167.380 240.345,164.528 241.382,153.846 240.862 C 147.168 240.536,146.473 239.900,142.993 230.925 C 141.231 226.381,143.199 217.821,147.105 213.041 C 150.557 208.817,162.617 208.327,166.154 212.268 M206.347 210.484 C 207.680 211.174,209.238 212.205,209.808 212.775 C 210.378 213.345,211.451 214.252,212.192 214.791 C 218.867 219.641,217.379 235.578,209.914 239.185 C 191.923 247.877,176.030 228.028,190.125 214.470 C 194.621 210.145,195.622 209.705,201.769 209.354 C 202.953 209.286,205.013 209.795,206.347 210.484 M251.640 210.859 C 252.753 211.294,254.311 212.913,255.101 214.458 C 255.892 216.002,257.144 217.946,257.885 218.778 C 259.750 220.873,259.692 228.215,257.776 232.508 C 256.975 234.302,256.128 236.355,255.894 237.071 C 253.712 243.728,234.313 242.250,231.506 235.212 C 230.953 233.826,229.879 231.788,229.120 230.683 C 227.687 228.598,228.227 220.364,229.867 219.287 C 230.236 219.045,230.978 218.012,231.516 216.993 C 235.257 209.896,243.073 207.513,251.640 210.859 M292.290 210.000 C 293.009 210.000,295.903 212.284,298.721 215.075 L 303.846 220.150 303.846 224.572 C 303.846 236.840,292.768 244.047,280.078 240.035 C 269.864 236.805,268.911 219.107,278.596 212.499 C 283.121 209.411,283.729 209.218,287.607 209.636 C 289.464 209.836,291.572 210.000,292.290 210.000 M336.936 210.848 C 342.690 213.323,345.386 217.931,345.382 225.280 C 345.374 237.229,341.736 240.978,330.240 240.882 C 316.976 240.772,309.215 226.427,317.402 217.152 C 323.156 210.635,323.842 210.094,326.734 209.791 C 332.525 209.185,333.243 209.259,336.936 210.848 M120.987 259.713 C 123.194 260.825,125.117 262.043,125.261 262.420 C 125.405 262.796,125.924 263.531,126.415 264.052 C 130.144 268.011,129.993 280.605,126.154 285.809 C 123.521 289.379,110.408 290.559,105.700 287.650 C 88.708 277.148,103.161 250.735,120.987 259.713 M161.702 258.181 C 166.446 258.966,173.846 268.054,173.846 273.095 C 173.846 276.876,172.613 280.769,171.415 280.769 C 171.060 280.769,170.769 281.288,170.769 281.923 C 170.769 282.558,169.385 284.462,167.692 286.154 L 164.615 289.231 158.269 289.187 C 149.943 289.130,146.903 288.063,145.249 284.615 C 137.840 269.165,146.264 255.629,161.702 258.181 M209.532 261.123 C 215.216 265.179,216.154 266.918,216.154 273.402 C 216.154 285.152,212.084 289.190,200.216 289.219 C 189.542 289.245,183.820 282.511,185.076 271.404 C 185.683 266.042,185.611 266.132,195.318 258.678 C 198.266 256.414,204.416 257.472,209.532 261.123 M248.757 258.629 C 255.905 260.744,262.789 274.647,258.709 278.727 C 258.422 279.014,257.627 280.889,256.943 282.894 C 254.594 289.782,239.043 292.229,233.410 286.597 C 227.013 280.200,227.105 269.168,233.612 262.462 C 234.145 261.912,234.849 261.025,235.175 260.490 C 236.614 258.135,243.771 257.154,248.757 258.629 M296.360 261.346 C 298.552 263.356,300.732 265.353,301.205 265.785 C 305.230 269.461,304.755 277.393,300.136 283.642 C 293.900 292.079,277.148 291.283,273.355 282.369 C 266.467 266.184,284.079 250.089,296.360 261.346 M271.597 310.577 C 279.529 316.323,279.243 315.885,279.324 322.409 C 279.442 331.930,277.510 334.985,269.615 337.763 C 265.180 339.324,136.820 339.375,131.467 337.818 C 123.726 335.567,119.759 328.590,121.445 320.195 C 122.241 316.229,123.675 313.846,125.266 313.846 C 125.684 313.846,126.141 313.569,126.282 313.230 C 126.423 312.891,128.096 311.521,130.000 310.187 L 133.462 307.761 200.538 307.727 L 267.615 307.692 271.597 310.577 M395.897 379.744 C 394.245 381.396,395.432 384.615,397.692 384.615 C 399.817 384.615,400.000 384.402,400.000 381.923 C 400.000 379.301,397.610 378.031,395.897 379.744 M0.000 382.308 C 0.000 384.432,0.214 384.615,2.692 384.615 C 5.171 384.615,5.385 384.432,5.385 382.308 C 5.385 380.183,5.171 380.000,2.692 380.000 C 0.214 380.000,0.000 380.183,0.000 382.308 " stroke="none" fill="none" fill-rule="evenodd"></path>
    <path id="path1" d="M310.000 2.514 C 310.000 3.896,309.178 6.237,308.174 7.715 C 306.354 10.392,306.347 10.497,305.961 38.470 C 305.525 70.107,304.879 74.298,299.792 78.459 C 298.498 79.518,297.165 80.731,296.830 81.154 C 293.394 85.497,291.360 86.975,286.154 88.916 C 282.981 90.098,279.519 91.635,278.462 92.331 C 271.948 96.616,267.029 96.866,187.692 96.948 C 114.698 97.024,110.615 97.179,106.115 100.047 C 105.079 100.707,101.503 102.265,98.170 103.508 C 93.745 105.159,91.290 106.625,89.073 108.940 C 87.402 110.684,85.231 112.542,84.246 113.069 C 83.262 113.595,81.669 115.558,80.706 117.431 C 79.743 119.303,78.165 121.625,77.201 122.590 C 75.191 124.599,72.773 129.904,72.071 133.846 C 71.807 135.327,71.060 138.961,70.411 141.923 C 69.762 144.884,69.231 148.727,69.231 150.462 C 69.231 160.842,67.856 161.329,37.643 161.658 L 13.363 161.923 9.175 164.808 C 6.447 166.686,4.117 167.692,2.493 167.692 L 0.000 167.692 0.000 273.846 L 0.000 380.000 2.692 380.000 C 5.171 380.000,5.385 380.183,5.385 382.308 L 5.385 384.615 200.336 384.615 L 395.287 384.615 395.528 382.115 C 395.729 380.032,396.122 379.575,397.885 379.372 L 400.000 379.129 400.000 273.795 L 400.000 168.462 398.400 168.462 C 397.519 168.462,394.861 167.175,392.491 165.602 C 386.304 161.495,393.225 161.675,237.930 161.603 C 144.373 161.561,96.083 161.277,95.769 160.769 C 95.508 160.346,94.630 160.000,93.818 160.000 C 91.098 160.000,89.788 156.737,90.350 151.363 C 90.897 146.136,91.065 145.590,94.114 139.154 C 95.236 136.785,96.154 134.362,96.155 133.769 C 96.156 132.483,99.479 128.462,100.541 128.462 C 100.952 128.462,102.739 127.081,104.513 125.393 C 106.287 123.706,108.680 122.115,109.831 121.857 C 110.982 121.600,113.135 121.079,114.615 120.699 C 116.104 120.317,147.388 120.007,184.575 120.004 C 262.689 119.999,271.983 119.465,278.846 114.586 C 279.269 114.286,280.654 113.843,281.923 113.604 C 290.037 112.071,293.005 111.103,295.466 109.188 C 296.991 108.001,300.460 105.851,303.175 104.411 C 310.314 100.623,318.946 91.309,321.521 84.615 C 322.091 83.135,323.214 81.186,324.018 80.284 C 327.811 76.032,330.575 23.949,327.708 10.769 C 327.202 8.442,326.610 5.067,326.393 3.269 L 325.999 0.000 317.999 0.000 L 310.000 0.000 310.000 2.514 M368.971 193.494 L 372.308 195.449 372.308 272.798 L 372.308 350.147 370.613 352.574 C 369.682 353.908,368.241 355.608,367.413 356.351 C 365.984 357.633,357.305 357.692,199.595 357.505 L 33.284 357.308 30.789 354.636 C 29.416 353.167,27.985 351.154,27.608 350.163 C 26.788 348.005,26.693 196.922,27.512 195.683 C 27.823 195.212,29.462 194.102,31.154 193.217 L 34.231 191.606 199.932 191.572 L 365.634 191.538 368.971 193.494 M65.385 210.429 C 56.352 214.436,52.960 225.753,57.779 235.806 C 60.903 242.325,77.455 242.980,82.661 236.791 C 93.475 223.934,80.291 203.816,65.385 210.429 M110.082 209.938 C 107.612 210.361,106.272 211.120,105.099 212.759 C 104.216 213.991,102.189 216.271,100.593 217.824 C 95.268 223.008,97.962 234.429,105.707 239.504 C 110.452 242.613,124.802 240.792,126.624 236.850 C 133.952 220.995,125.528 207.290,110.082 209.938 M154.231 209.733 C 151.152 210.440,148.055 211.878,147.105 213.041 C 143.199 217.821,141.231 226.381,142.993 230.925 C 146.473 239.900,147.168 240.536,153.846 240.862 C 164.528 241.382,167.380 240.345,169.977 235.000 C 170.594 233.731,171.717 231.773,172.472 230.650 C 175.727 225.814,174.122 221.146,166.154 212.268 C 164.208 210.100,158.194 208.822,154.231 209.733 M197.145 209.785 C 195.427 209.999,193.289 211.426,190.125 214.470 C 176.030 228.028,191.923 247.877,209.914 239.185 C 217.379 235.578,218.867 219.641,212.192 214.791 C 211.451 214.252,210.378 213.345,209.808 212.775 C 206.799 209.766,203.516 208.991,197.145 209.785 M239.894 209.758 C 237.031 210.090,233.587 213.065,231.516 216.993 C 230.978 218.012,230.236 219.045,229.867 219.287 C 228.227 220.364,227.687 228.598,229.120 230.683 C 229.879 231.788,230.953 233.826,231.506 235.212 C 234.313 242.250,253.712 243.728,255.894 237.071 C 256.128 236.355,256.975 234.302,257.776 232.508 C 259.692 228.215,259.750 220.873,257.885 218.778 C 257.144 217.946,255.892 216.002,255.101 214.458 C 253.104 210.555,247.626 208.863,239.894 209.758 M283.077 209.750 C 269.684 215.300,267.625 236.097,280.078 240.035 C 292.768 244.047,303.846 236.840,303.846 224.572 L 303.846 220.150 298.721 215.075 C 295.903 212.284,293.009 210.000,292.290 210.000 C 291.572 210.000,289.464 209.836,287.607 209.636 C 285.750 209.436,283.712 209.487,283.077 209.750 M326.734 209.791 C 323.842 210.094,323.156 210.635,317.402 217.152 C 309.215 226.427,316.976 240.772,330.240 240.882 C 341.736 240.978,345.374 237.229,345.382 225.280 C 345.386 217.931,342.690 213.323,336.936 210.848 C 333.243 209.259,332.525 209.185,326.734 209.791 M108.846 258.588 C 104.132 260.135,97.692 268.613,97.692 273.272 C 97.692 285.106,108.913 292.092,121.834 288.302 C 129.141 286.159,132.164 270.155,126.415 264.052 C 125.924 263.531,125.405 262.796,125.261 262.420 C 124.086 259.337,113.848 256.947,108.846 258.588 M152.692 258.632 C 142.838 262.126,139.706 273.057,145.249 284.615 C 146.903 288.063,149.943 289.130,158.269 289.187 L 164.615 289.231 167.692 286.154 C 169.385 284.462,170.769 282.558,170.769 281.923 C 170.769 281.288,171.060 280.769,171.415 280.769 C 171.770 280.769,172.462 279.888,172.953 278.810 C 177.860 268.042,164.284 254.522,152.692 258.632 M195.318 258.678 C 185.611 266.132,185.683 266.042,185.076 271.404 C 183.309 287.030,201.878 296.115,213.162 285.144 C 216.156 282.233,217.388 271.243,215.247 266.544 C 212.516 260.549,199.548 255.431,195.318 258.678 M238.462 258.684 C 236.981 259.142,235.502 259.955,235.175 260.490 C 234.849 261.025,234.145 261.912,233.612 262.462 C 227.105 269.168,227.013 280.200,233.410 286.597 C 239.043 292.229,254.594 289.782,256.943 282.894 C 257.627 280.889,258.422 279.014,258.709 278.727 C 258.996 278.440,259.231 276.178,259.231 273.701 C 259.231 262.589,249.220 255.350,238.462 258.684 M279.529 260.349 C 268.880 267.331,269.107 284.474,279.897 288.234 C 284.407 289.805,292.825 289.512,295.789 287.680 C 303.547 282.886,306.566 270.681,301.205 265.785 C 300.732 265.353,298.552 263.356,296.360 261.346 C 291.070 256.497,285.873 256.189,279.529 260.349 M130.000 310.187 C 128.096 311.521,126.423 312.891,126.282 313.230 C 126.141 313.569,125.684 313.846,125.266 313.846 C 123.675 313.846,122.241 316.229,121.445 320.195 C 119.759 328.590,123.726 335.567,131.467 337.818 C 136.820 339.375,265.180 339.324,269.615 337.763 C 277.510 334.985,279.442 331.930,279.324 322.409 C 279.243 315.885,279.529 316.323,271.597 310.577 L 267.615 307.692 200.538 307.727 L 133.462 307.761 130.000 310.187 " stroke="none" fill="#33b2b8" fill-rule="evenodd"></path>
  </g>
</svg>
