<svg id="svg" viewBox="0 0 360 340" version="1.1" width="20" height="20" xmlns="http://www.w3.org/2000/svg" xmlns:xlink="http://www.w3.org/1999/xlink" style="display: block;">
  <g id="svgg">
    <path class="equipsvg" id="path0" d="M0.000 162.602 L 0.000 325.203 44.878 325.203 L 89.756 325.203 89.756 323.719 C 89.756 321.981,87.067 320.999,79.675 320.039 C 67.426 318.447,64.546 317.859,61.953 316.422 C 59.104 314.842,54.307 313.313,49.756 312.534 C 48.325 312.289,45.545 311.265,43.577 310.259 C 38.715 307.773,37.135 307.143,34.472 306.625 C 33.220 306.382,31.063 305.560,29.678 304.799 C 23.039 301.147,21.730 300.501,20.967 300.495 C 19.297 300.481,14.309 296.959,14.309 295.794 C 14.309 294.885,12.183 293.014,10.160 292.141 C 9.130 291.697,8.421 291.200,8.583 291.037 C 9.458 290.162,15.923 289.529,18.692 290.047 C 20.514 290.388,23.127 290.385,25.041 290.040 C 26.829 289.717,32.976 289.161,38.699 288.804 C 49.763 288.114,58.910 286.868,62.114 285.615 C 64.443 284.703,66.914 283.629,68.399 282.881 C 68.993 282.581,71.042 282.133,72.951 281.885 C 77.499 281.294,80.834 280.096,83.425 278.125 C 84.582 277.244,86.407 276.330,87.480 276.093 C 90.815 275.356,94.376 273.835,96.500 272.241 C 97.620 271.400,100.000 270.057,101.789 269.256 C 103.577 268.454,105.968 266.989,107.102 265.998 C 108.235 265.008,110.928 263.257,113.085 262.107 C 116.922 260.062,116.986 259.984,116.019 258.509 C 114.150 255.655,105.432 251.546,99.524 250.733 C 95.488 250.178,92.265 248.933,89.472 246.850 C 88.376 246.033,86.425 245.027,85.135 244.614 C 83.846 244.202,81.651 242.904,80.257 241.731 C 78.864 240.558,76.435 238.938,74.861 238.132 C 72.322 236.832,68.615 233.362,60.526 224.715 C 59.188 223.285,57.144 220.138,55.984 217.724 C 54.824 215.309,53.615 213.333,53.296 213.333 C 52.500 213.333,50.811 209.932,49.627 205.946 L 48.642 202.629 50.763 200.857 C 52.799 199.158,53.188 199.086,60.320 199.074 C 73.309 199.053,77.774 197.142,70.294 194.805 C 68.605 194.277,67.996 193.840,65.070 191.057 C 64.036 190.073,62.947 189.258,62.652 189.246 C 62.356 189.234,60.943 188.659,59.512 187.967 C 58.081 187.276,56.661 186.701,56.355 186.689 C 53.169 186.562,31.870 167.002,31.870 164.203 C 31.870 163.680,31.577 163.252,31.220 163.252 C 30.862 163.252,30.569 162.823,30.569 162.299 C 30.569 161.775,29.732 160.385,28.708 159.210 C 26.430 156.594,25.028 153.899,24.384 150.894 C 24.116 149.642,23.105 147.447,22.139 146.016 C 19.686 142.385,17.610 132.028,17.567 123.212 C 17.546 118.790,28.338 117.608,31.870 121.646 C 32.985 122.921,38.993 124.382,42.784 124.300 C 49.429 124.156,50.731 122.049,45.870 119.306 C 45.193 118.924,44.328 118.063,43.946 117.391 C 43.564 116.719,41.935 114.800,40.325 113.125 C 35.031 107.618,32.344 104.235,31.088 101.494 C 30.406 100.008,29.261 98.204,28.543 97.486 C 27.088 96.031,25.122 91.788,24.418 88.583 C 24.165 87.430,23.151 84.954,22.164 83.080 C 19.095 77.252,18.528 72.862,18.618 55.610 C 18.707 38.640,19.033 36.449,22.636 28.618 C 23.706 26.293,25.101 23.158,25.737 21.652 C 26.374 20.146,27.240 18.781,27.663 18.618 C 29.889 17.765,38.974 25.322,44.766 32.846 C 45.592 33.919,47.446 35.737,48.886 36.887 C 51.216 38.746,55.118 42.143,60.702 47.172 C 61.714 48.084,63.617 49.529,64.930 50.383 C 66.243 51.238,68.300 52.974,69.501 54.240 C 70.702 55.506,72.295 56.736,73.040 56.972 C 73.785 57.209,75.290 58.242,76.385 59.267 C 77.479 60.293,78.610 61.134,78.897 61.135 C 79.526 61.139,86.640 65.920,87.916 67.196 C 88.411 67.691,89.856 68.439,91.126 68.859 C 92.397 69.278,95.433 70.933,97.874 72.536 C 100.314 74.139,103.511 75.769,104.977 76.159 C 106.443 76.549,108.553 77.557,109.667 78.399 C 110.781 79.241,112.467 80.125,113.413 80.363 C 114.360 80.600,115.295 81.055,115.492 81.373 C 115.688 81.691,116.490 81.964,117.274 81.979 C 118.058 81.995,119.870 82.729,121.301 83.610 C 125.491 86.190,128.073 87.210,132.293 87.951 C 134.475 88.335,138.602 89.741,141.463 91.077 C 145.572 92.995,148.032 93.664,153.158 94.257 C 157.186 94.722,160.889 95.577,162.914 96.510 C 167.056 98.416,173.177 99.484,183.181 100.048 C 195.883 100.764,198.882 99.383,196.677 93.831 C 194.966 89.519,195.137 76.573,196.998 69.593 C 199.650 59.648,200.181 57.501,200.618 54.959 C 200.863 53.528,202.197 50.455,203.581 48.130 C 204.966 45.805,206.284 43.140,206.511 42.208 C 206.738 41.276,208.073 39.122,209.478 37.421 C 210.883 35.721,212.033 34.079,212.033 33.773 C 212.033 33.466,212.841 32.389,213.828 31.379 C 214.816 30.368,216.791 28.102,218.218 26.342 C 221.793 21.935,222.438 21.320,226.079 18.848 C 227.833 17.657,230.000 15.962,230.894 15.080 C 231.789 14.198,233.545 13.050,234.797 12.530 C 236.049 12.009,238.558 10.605,240.374 9.410 C 242.189 8.214,244.530 7.037,245.577 6.794 C 253.297 4.998,255.610 3.789,255.610 1.546 L 255.610 0.000 127.805 0.000 L 0.000 0.000 0.000 162.602 M299.837 1.546 C 299.837 3.612,300.612 4.125,306.341 5.855 C 309.024 6.666,312.390 8.107,313.821 9.058 C 315.252 10.010,317.886 11.474,319.675 12.313 C 321.463 13.152,323.951 14.816,325.203 16.010 C 326.455 17.204,328.943 19.576,330.732 21.282 C 335.521 25.849,344.077 26.188,352.802 22.155 C 357.383 20.038,360.233 19.118,364.009 18.534 C 365.499 18.304,368.509 16.952,370.699 15.529 C 373.437 13.750,375.691 12.822,377.913 12.559 C 380.018 12.309,381.722 11.641,382.801 10.641 C 383.712 9.796,384.589 9.106,384.749 9.106 C 385.518 9.106,384.956 16.437,384.123 17.270 C 383.619 17.775,382.678 19.583,382.034 21.289 C 381.389 22.995,380.056 25.261,379.072 26.326 C 378.088 27.390,376.766 29.220,376.136 30.391 C 375.505 31.562,374.763 32.520,374.486 32.520 C 374.210 32.520,373.984 32.838,373.984 33.227 C 373.984 33.615,372.301 35.648,370.244 37.745 C 368.187 39.842,366.211 41.893,365.854 42.303 C 365.496 42.712,363.641 44.000,361.733 45.163 L 358.262 47.278 360.710 48.440 C 364.463 50.221,375.674 48.824,378.862 46.178 C 379.755 45.438,387.908 43.577,390.261 43.577 C 393.815 43.577,394.623 47.722,391.531 50.092 C 390.451 50.920,388.924 52.636,388.139 53.907 C 386.380 56.754,367.242 75.879,365.646 76.386 C 362.672 77.329,361.130 83.561,360.382 97.657 C 359.995 104.938,359.400 112.065,359.058 113.496 C 358.716 114.927,357.962 120.195,357.381 125.203 C 355.722 139.517,354.484 146.311,353.236 147.942 C 352.452 148.966,350.750 154.752,350.262 158.049 C 349.765 161.406,347.989 167.323,347.333 167.805 C 346.407 168.485,344.820 172.425,344.394 175.100 C 343.929 178.025,342.131 182.764,341.486 182.764 C 340.842 182.764,339.050 186.783,337.518 191.664 C 336.711 194.234,335.440 197.014,334.692 197.843 C 333.196 199.502,332.026 201.734,331.345 204.228 C 331.101 205.122,329.780 207.513,328.408 209.542 C 327.037 211.570,325.504 214.213,325.001 215.415 C 324.499 216.617,323.168 218.520,322.044 219.644 C 320.920 220.769,320.000 221.899,320.000 222.155 C 320.000 223.473,316.774 228.824,314.634 231.057 C 313.293 232.457,312.195 234.003,312.195 234.493 C 312.195 234.983,311.207 236.350,309.999 237.530 C 308.792 238.709,307.255 240.559,306.585 241.639 C 304.987 244.213,302.318 247.054,289.431 259.899 C 275.974 273.312,275.221 274.022,272.871 275.520 C 271.811 276.195,269.848 277.822,268.508 279.135 C 267.167 280.447,265.431 281.724,264.649 281.972 C 263.867 282.221,262.402 283.268,261.394 284.299 C 260.385 285.331,257.881 286.943,255.828 287.882 C 253.775 288.821,251.545 290.289,250.872 291.144 C 250.199 291.999,248.304 293.312,246.659 294.061 C 245.015 294.810,242.231 296.413,240.472 297.623 C 238.713 298.833,236.058 300.175,234.572 300.606 C 232.032 301.342,229.023 302.872,228.293 303.797 C 227.652 304.609,224.023 306.193,221.789 306.637 C 218.991 307.192,215.890 308.571,212.946 310.569 C 211.719 311.402,209.474 312.287,207.959 312.535 C 202.803 313.379,197.406 314.944,194.378 316.474 C 192.346 317.501,188.408 318.433,182.345 319.322 C 170.185 321.104,167.805 321.824,167.805 323.719 L 167.805 325.203 283.902 325.203 L 400.000 325.203 400.000 162.602 L 400.000 0.000 349.919 0.000 L 299.837 0.000 299.837 1.546 " stroke="none" fill="none" fill-rule="evenodd"></path>
    <path id="path1" d="M255.610 1.546 C 255.610 3.789,253.297 4.998,245.577 6.794 C 244.530 7.037,242.189 8.214,240.374 9.410 C 238.558 10.605,236.049 12.009,234.797 12.530 C 233.545 13.050,231.789 14.198,230.894 15.080 C 230.000 15.962,227.833 17.657,226.079 18.848 C 222.438 21.320,221.793 21.935,218.218 26.342 C 216.791 28.102,214.816 30.368,213.828 31.379 C 212.841 32.389,212.033 33.466,212.033 33.773 C 212.033 34.079,210.883 35.721,209.478 37.421 C 208.073 39.122,206.738 41.276,206.511 42.208 C 206.284 43.140,204.966 45.805,203.581 48.130 C 202.197 50.455,200.863 53.528,200.618 54.959 C 200.181 57.501,199.650 59.648,196.998 69.593 C 195.137 76.573,194.966 89.519,196.677 93.831 C 198.882 99.383,195.883 100.764,183.181 100.048 C 173.177 99.484,167.056 98.416,162.914 96.510 C 160.889 95.577,157.186 94.722,153.158 94.257 C 148.032 93.664,145.572 92.995,141.463 91.077 C 138.602 89.741,134.475 88.335,132.293 87.951 C 128.073 87.210,125.491 86.190,121.301 83.610 C 119.870 82.729,118.058 81.995,117.274 81.979 C 116.490 81.964,115.688 81.691,115.492 81.373 C 115.295 81.055,114.360 80.600,113.413 80.363 C 112.467 80.125,110.781 79.241,109.667 78.399 C 108.553 77.557,106.443 76.549,104.977 76.159 C 103.511 75.769,100.314 74.139,97.874 72.536 C 95.433 70.933,92.397 69.278,91.126 68.859 C 89.856 68.439,88.411 67.691,87.916 67.196 C 86.640 65.920,79.526 61.139,78.897 61.135 C 78.610 61.134,77.479 60.293,76.385 59.267 C 75.290 58.242,73.785 57.209,73.040 56.972 C 72.295 56.736,70.702 55.506,69.501 54.240 C 68.300 52.974,66.243 51.238,64.930 50.383 C 63.617 49.529,61.714 48.084,60.702 47.172 C 55.118 42.143,51.216 38.746,48.886 36.887 C 47.446 35.737,45.592 33.919,44.766 32.846 C 38.974 25.322,29.889 17.765,27.663 18.618 C 27.240 18.781,26.374 20.146,25.737 21.652 C 25.101 23.158,23.706 26.293,22.636 28.618 C 16.935 41.009,16.661 72.631,22.164 83.080 C 23.151 84.954,24.165 87.430,24.418 88.583 C 25.122 91.788,27.088 96.031,28.543 97.486 C 29.261 98.204,30.406 100.008,31.088 101.494 C 32.344 104.235,35.031 107.618,40.325 113.125 C 41.935 114.800,43.564 116.719,43.946 117.391 C 44.328 118.063,45.193 118.924,45.870 119.306 C 50.731 122.049,49.429 124.156,42.784 124.300 C 38.993 124.382,32.985 122.921,31.870 121.646 C 28.338 117.608,17.546 118.790,17.567 123.212 C 17.610 132.028,19.686 142.385,22.139 146.016 C 23.105 147.447,24.116 149.642,24.384 150.894 C 25.028 153.899,26.430 156.594,28.708 159.210 C 29.732 160.385,30.569 161.775,30.569 162.299 C 30.569 162.823,30.862 163.252,31.220 163.252 C 31.577 163.252,31.870 163.680,31.870 164.203 C 31.870 167.002,53.169 186.562,56.355 186.689 C 56.661 186.701,58.081 187.276,59.512 187.967 C 60.943 188.659,62.356 189.234,62.652 189.246 C 62.947 189.258,64.036 190.073,65.070 191.057 C 67.996 193.840,68.605 194.277,70.294 194.805 C 77.774 197.142,73.309 199.053,60.320 199.074 C 53.188 199.086,52.799 199.158,50.763 200.857 L 48.642 202.629 49.627 205.946 C 50.811 209.932,52.500 213.333,53.296 213.333 C 53.615 213.333,54.824 215.309,55.984 217.724 C 57.144 220.138,59.188 223.285,60.526 224.715 C 68.615 233.362,72.322 236.832,74.861 238.132 C 76.435 238.938,78.864 240.558,80.257 241.731 C 81.651 242.904,83.846 244.202,85.135 244.614 C 86.425 245.027,88.376 246.033,89.472 246.850 C 92.265 248.933,95.488 250.178,99.524 250.733 C 105.432 251.546,114.150 255.655,116.019 258.509 C 116.986 259.984,116.922 260.062,113.085 262.107 C 110.928 263.257,108.235 265.008,107.102 265.998 C 105.968 266.989,103.577 268.454,101.789 269.256 C 100.000 270.057,97.620 271.400,96.500 272.241 C 94.376 273.835,90.815 275.356,87.480 276.093 C 86.407 276.330,84.582 277.244,83.425 278.125 C 80.834 280.096,77.499 281.294,72.951 281.885 C 71.042 282.133,68.993 282.581,68.399 282.881 C 66.914 283.629,64.443 284.703,62.114 285.615 C 58.910 286.868,49.763 288.114,38.699 288.804 C 32.976 289.161,26.829 289.717,25.041 290.040 C 23.127 290.385,20.514 290.388,18.692 290.047 C 15.923 289.529,9.458 290.162,8.583 291.037 C 8.421 291.200,9.130 291.697,10.160 292.141 C 12.183 293.014,14.309 294.885,14.309 295.794 C 14.309 296.959,19.297 300.481,20.967 300.495 C 21.730 300.501,23.039 301.147,29.678 304.799 C 31.063 305.560,33.220 306.382,34.472 306.625 C 37.135 307.143,38.715 307.773,43.577 310.259 C 45.545 311.265,48.325 312.289,49.756 312.534 C 54.307 313.313,59.104 314.842,61.953 316.422 C 64.546 317.859,67.426 318.447,79.675 320.039 C 87.067 320.999,89.756 321.981,89.756 323.719 L 89.756 325.203 128.780 325.203 L 167.805 325.203 167.805 323.719 C 167.805 321.824,170.185 321.104,182.345 319.322 C 188.408 318.433,192.346 317.501,194.378 316.474 C 197.406 314.944,202.803 313.379,207.959 312.535 C 209.474 312.287,211.719 311.402,212.946 310.569 C 215.890 308.571,218.991 307.192,221.789 306.637 C 224.023 306.193,227.652 304.609,228.293 303.797 C 229.023 302.872,232.032 301.342,234.572 300.606 C 236.058 300.175,238.713 298.833,240.472 297.623 C 242.231 296.413,245.015 294.810,246.659 294.061 C 248.304 293.312,250.199 291.999,250.872 291.144 C 251.545 290.289,253.775 288.821,255.828 287.882 C 257.881 286.943,260.385 285.331,261.394 284.299 C 262.402 283.268,263.867 282.221,264.649 281.972 C 265.431 281.724,267.167 280.447,268.508 279.135 C 269.848 277.822,271.811 276.195,272.871 275.520 C 275.221 274.022,275.974 273.312,289.431 259.899 C 302.318 247.054,304.987 244.213,306.585 241.639 C 307.255 240.559,308.792 238.709,309.999 237.530 C 311.207 236.350,312.195 234.983,312.195 234.493 C 312.195 234.003,313.293 232.457,314.634 231.057 C 316.774 228.824,320.000 223.473,320.000 222.155 C 320.000 221.899,320.920 220.769,322.044 219.644 C 323.168 218.520,324.499 216.617,325.001 215.415 C 325.504 214.213,327.037 211.570,328.408 209.542 C 329.780 207.513,331.101 205.122,331.345 204.228 C 332.026 201.734,333.196 199.502,334.692 197.843 C 335.440 197.014,336.711 194.234,337.518 191.664 C 339.050 186.783,340.842 182.764,341.486 182.764 C 342.131 182.764,343.929 178.025,344.394 175.100 C 344.820 172.425,346.407 168.485,347.333 167.805 C 347.989 167.323,349.765 161.406,350.262 158.049 C 350.750 154.752,352.452 148.966,353.236 147.942 C 354.484 146.311,355.722 139.517,357.381 125.203 C 357.962 120.195,358.716 114.927,359.058 113.496 C 359.400 112.065,359.995 104.938,360.382 97.657 C 361.130 83.561,362.672 77.329,365.646 76.386 C 367.242 75.879,386.380 56.754,388.139 53.907 C 388.924 52.636,390.451 50.920,391.531 50.092 C 394.623 47.722,393.815 43.577,390.261 43.577 C 387.908 43.577,379.755 45.438,378.862 46.178 C 375.674 48.824,364.463 50.221,360.710 48.440 L 358.262 47.278 361.733 45.163 C 363.641 44.000,365.496 42.712,365.854 42.303 C 366.211 41.893,368.187 39.842,370.244 37.745 C 372.301 35.648,373.984 33.615,373.984 33.227 C 373.984 32.838,374.210 32.520,374.486 32.520 C 374.763 32.520,375.505 31.562,376.136 30.391 C 376.766 29.220,378.088 27.390,379.072 26.326 C 380.056 25.261,381.389 22.995,382.034 21.289 C 382.678 19.583,383.619 17.775,384.123 17.270 C 384.956 16.437,385.518 9.106,384.749 9.106 C 384.589 9.106,383.712 9.796,382.801 10.641 C 381.722 11.641,380.018 12.309,377.913 12.559 C 375.691 12.822,373.437 13.750,370.699 15.529 C 368.509 16.952,365.499 18.304,364.009 18.534 C 360.233 19.118,357.383 20.038,352.802 22.155 C 344.077 26.188,335.521 25.849,330.732 21.282 C 328.943 19.576,326.455 17.204,325.203 16.010 C 323.951 14.816,321.463 13.152,319.675 12.313 C 317.886 11.474,315.252 10.010,313.821 9.058 C 312.390 8.107,309.024 6.666,306.341 5.855 C 300.612 4.125,299.837 3.612,299.837 1.546 L 299.837 0.000 277.724 0.000 L 255.610 0.000 255.610 1.546 " stroke="none" fill="#F26A73" fill-rule="evenodd"></path>
  </g>
</svg>
